<?xml version="1.0" encoding="UTF-8" standalone="no"?>
<!DOCTYPE svg PUBLIC "-//W3C//DTD SVG 20010904//EN"
              "http://www.w3.org/TR/2001/REC-SVG-20010904/DTD/svg10.dtd">

<svg xmlns="http://www.w3.org/2000/svg"
     width="3.41333in" height="3.41333in"
     viewBox="0 0 1024 1024">
  <path id="選択範囲 #7"
        fill="#454351" stroke="black" stroke-width="1"
        d="M 844.00,192.53
           C 857.95,190.23 862.76,195.88 873.00,204.00
             873.00,204.00 888.00,215.79 888.00,215.79
             888.00,215.79 985.00,292.00 985.00,292.00
             985.00,292.00 1006.00,308.60 1006.00,308.60
             1013.53,314.61 1019.50,318.48 1019.96,329.00
             1020.09,332.03 1019.92,335.13 1018.87,338.00
             1016.65,344.06 999.49,364.50 994.42,371.00
             994.42,371.00 918.12,468.00 918.12,468.00
             918.12,468.00 847.21,558.00 847.21,558.00
             847.21,558.00 729.21,708.00 729.21,708.00
             729.21,708.00 660.00,796.00 660.00,796.00
             660.00,796.00 626.99,836.82 626.99,836.82
             622.87,840.51 610.34,847.80 605.00,851.00
             605.00,851.00 569.00,872.80 569.00,872.80
             569.00,872.80 405.00,972.40 405.00,972.40
             391.95,980.23 371.52,997.49 357.33,981.90
             355.77,980.19 354.48,978.14 353.61,976.00
             352.39,973.01 351.87,969.22 352.10,966.00
             352.38,961.83 354.94,955.18 356.33,951.00
             356.33,951.00 365.31,925.00 365.31,925.00
             365.31,925.00 391.67,848.00 391.67,848.00
             391.67,848.00 426.00,748.00 426.00,748.00
             426.00,748.00 438.00,713.00 438.00,713.00
             439.87,707.50 442.74,697.69 445.35,693.00
             445.35,693.00 473.00,657.00 473.00,657.00
             473.00,657.00 522.58,594.00 522.58,594.00
             522.58,594.00 634.21,452.00 634.21,452.00
             634.21,452.00 694.12,376.00 694.12,376.00
             694.12,376.00 799.58,242.00 799.58,242.00
             799.58,242.00 825.58,209.00 825.58,209.00
             831.41,201.53 834.46,195.50 844.00,192.53 Z
           M 611.00,792.00
           C 611.00,792.00 636.58,759.00 636.58,759.00
             636.58,759.00 695.58,684.00 695.58,684.00
             695.58,684.00 879.65,450.00 879.65,450.00
             879.65,450.00 946.60,365.00 946.60,365.00
             946.60,365.00 963.88,343.00 963.88,343.00
             965.52,340.87 969.26,336.80 968.97,334.04
             968.69,331.30 965.01,328.92 963.00,327.35
             963.00,327.35 947.00,314.79 947.00,314.79
             947.00,314.79 879.00,261.20 879.00,261.20
             879.00,261.20 860.00,246.21 860.00,246.21
             857.50,244.29 854.63,241.57 851.44,243.65
             849.32,245.04 841.66,255.33 839.58,258.00
             839.58,258.00 815.88,288.00 815.88,288.00
             815.88,288.00 742.00,382.00 742.00,382.00
             742.00,382.00 573.58,596.00 573.58,596.00
             573.58,596.00 515.35,670.00 515.35,670.00
             515.35,670.00 492.00,700.00 492.00,700.00
             492.00,700.00 519.00,721.42 519.00,721.42
             519.00,721.42 571.00,762.40 571.00,762.40
             571.00,762.40 595.00,781.21 595.00,781.21
             600.05,785.19 604.82,789.95 611.00,792.00 Z
           M 474.00,738.00
           C 474.00,738.00 465.00,761.00 465.00,761.00
             465.00,761.00 451.33,801.00 451.33,801.00
             451.33,801.00 424.66,879.00 424.66,879.00
             424.66,879.00 409.03,921.98 409.03,921.98
             409.03,921.98 446.00,899.20 446.00,899.20
             446.00,899.20 537.00,844.00 537.00,844.00
             537.00,844.00 577.00,820.00 577.00,820.00
             577.00,820.00 541.00,790.58 541.00,790.58
             541.00,790.58 474.00,738.00 474.00,738.00 Z
           M 41.00,943.00
           C 41.00,943.00 266.00,943.00 266.00,943.00
             266.00,943.00 312.00,943.00 312.00,943.00
             325.87,943.17 333.37,951.27 332.98,965.00
             332.59,979.19 321.45,983.98 309.00,984.00
             309.00,984.00 72.00,984.00 72.00,984.00
             72.00,984.00 21.00,984.00 21.00,984.00
             6.86,983.93 0.02,975.70 0.00,962.00
             0.00,962.00 0.00,453.00 0.00,453.00
             0.00,453.00 0.00,139.00 0.00,139.00
             0.00,139.00 0.00,66.00 0.00,66.00
             0.00,62.98 -0.10,59.92 0.80,57.00
             3.98,46.70 12.35,44.02 22.00,44.00
             22.00,44.00 542.00,44.00 542.00,44.00
             542.00,44.00 679.00,44.00 679.00,44.00
             693.13,44.02 699.98,50.87 700.00,65.00
             700.00,65.00 700.00,220.00 700.00,220.00
             700.00,220.00 701.00,235.00 701.00,235.00
             701.00,235.00 701.00,327.00 701.00,327.00
             700.99,335.81 700.32,344.63 692.96,350.61
             684.37,357.59 670.20,355.95 663.64,346.98
             660.08,342.13 660.01,338.71 660.00,333.00
             660.00,333.00 660.00,206.00 660.00,206.00
             660.00,206.00 659.00,191.00 659.00,191.00
             659.00,191.00 659.00,84.00 659.00,84.00
             659.00,84.00 457.00,84.00 457.00,84.00
             457.00,84.00 356.00,84.00 356.00,84.00
             356.00,84.00 341.00,85.00 341.00,85.00
             341.00,85.00 41.00,85.00 41.00,85.00
             41.00,85.00 41.00,943.00 41.00,943.00 Z
           M 93.00,194.65
           C 98.54,193.51 107.09,194.00 113.00,194.00
             113.00,194.00 147.00,194.00 147.00,194.00
             147.00,194.00 257.00,194.00 257.00,194.00
             257.00,194.00 599.00,194.00 599.00,194.00
             605.53,194.01 609.74,194.39 614.67,199.33
             623.86,208.51 621.43,225.98 610.00,232.08
             606.01,234.21 603.34,233.99 599.00,234.00
             599.00,234.00 189.00,234.00 189.00,234.00
             189.00,234.00 101.00,234.00 101.00,234.00
             94.84,233.99 91.11,233.80 86.18,229.47
             81.54,225.39 80.07,220.97 80.00,215.00
             79.88,204.67 83.03,198.61 93.00,194.65 Z
           M 91.00,344.65
           C 96.54,343.51 105.09,344.00 111.00,344.00
             111.00,344.00 145.00,344.00 145.00,344.00
             145.00,344.00 255.00,344.00 255.00,344.00
             255.00,344.00 597.00,344.00 597.00,344.00
             603.53,344.01 607.74,344.39 612.67,349.33
             621.86,358.51 619.43,375.98 608.00,382.08
             604.01,384.21 601.34,383.99 597.00,384.00
             597.00,384.00 187.00,384.00 187.00,384.00
             187.00,384.00 99.00,384.00 99.00,384.00
             92.84,383.99 89.11,383.80 84.18,379.47
             79.54,375.39 78.07,370.97 78.00,365.00
             77.88,354.67 81.03,348.61 91.00,344.65 Z
           M 91.00,494.65
           C 91.00,494.65 138.00,494.00 138.00,494.00
             138.00,494.00 233.00,494.00 233.00,494.00
             233.00,494.00 530.00,494.00 530.00,494.00
             536.53,494.01 540.74,494.39 545.67,499.33
             554.86,508.51 552.43,525.98 541.00,532.08
             537.01,534.21 534.34,533.99 530.00,534.00
             530.00,534.00 99.00,534.00 99.00,534.00
             92.84,533.99 89.11,533.80 84.18,529.47
             79.54,525.39 78.07,520.97 78.00,515.00
             77.88,504.67 81.03,498.61 91.00,494.65 Z
           M 91.00,644.65
           C 91.00,644.65 126.00,644.00 126.00,644.00
             126.00,644.00 195.00,644.00 195.00,644.00
             195.00,644.00 410.00,644.00 410.00,644.00
             414.34,644.01 417.01,643.79 421.00,645.92
             432.43,652.02 434.86,669.49 425.67,678.67
             420.74,683.61 416.53,683.99 410.00,684.00
             410.00,684.00 99.00,684.00 99.00,684.00
             92.84,683.99 89.11,683.80 84.18,679.47
             79.54,675.39 78.07,670.97 78.00,665.00
             77.88,654.67 81.03,648.61 91.00,644.65 Z
           M 91.00,794.65
           C 96.95,793.42 114.84,794.00 122.00,794.00
             122.00,794.00 180.00,794.00 180.00,794.00
             180.00,794.00 364.00,794.00 364.00,794.00
             368.34,794.01 371.01,793.79 375.00,795.92
             386.43,802.02 388.86,819.49 379.67,828.67
             374.74,833.61 370.53,833.99 364.00,834.00
             364.00,834.00 99.00,834.00 99.00,834.00
             92.84,833.99 89.11,833.80 84.18,829.47
             79.54,825.39 78.07,820.97 78.00,815.00
             77.88,804.67 81.03,798.61 91.00,794.65 Z
           M 660.00,943.00
           C 660.00,943.00 660.00,836.00 660.00,836.00
             660.01,830.29 660.08,826.87 663.64,822.02
             670.68,812.40 685.20,811.34 693.96,819.21
             700.24,824.86 700.99,832.07 701.00,840.00
             701.00,840.00 701.00,932.00 701.00,932.00
             701.00,932.00 700.00,947.00 700.00,947.00
             699.98,960.31 703.49,978.23 687.00,983.20
             684.02,984.10 681.07,984.00 678.00,983.88
             678.00,983.88 519.00,983.88 519.00,983.88
             519.00,983.88 501.00,983.88 501.00,983.88
             497.13,984.00 490.56,984.22 487.00,983.88
             477.62,981.73 471.28,974.56 471.02,965.00
             470.59,949.61 479.40,943.02 494.00,943.00
             494.00,943.00 660.00,943.00 660.00,943.00 Z" />
</svg>
