<?xml version="1.0" encoding="UTF-8" standalone="no"?>
<!DOCTYPE svg PUBLIC "-//W3C//DTD SVG 20010904//EN"
              "http://www.w3.org/TR/2001/REC-SVG-20010904/DTD/svg10.dtd">

<svg xmlns="http://www.w3.org/2000/svg"
     width="3.41333in" height="3.41333in"
     viewBox="0 0 1024 1024">
  <path id="選択範囲 #18"
        fill="#454351" stroke="none" stroke-width="1"
        d="M 513.00,476.00
           C 519.10,461.93 539.03,431.05 547.95,417.00
             574.29,375.49 613.20,323.88 644.75,286.00
             672.70,252.45 702.58,220.45 735.00,191.17
             735.00,191.17 764.00,166.75 764.00,166.75
             786.37,148.11 810.71,131.86 837.00,119.22
             863.55,106.46 887.24,97.09 917.00,94.91
             917.00,94.91 927.00,94.00 927.00,94.00
             947.43,93.76 970.14,98.73 986.00,112.30
             991.61,117.10 997.05,122.96 1001.28,129.00
             1008.94,139.94 1012.08,148.41 1015.98,161.00
             1019.07,171.00 1021.98,193.48 1022.00,204.00
             1022.00,204.00 1022.00,227.00 1022.00,227.00
             1022.00,227.00 1021.00,247.00 1021.00,247.00
             1021.00,247.00 1020.00,260.00 1020.00,260.00
             1020.00,260.00 1017.17,299.00 1017.17,299.00
             1017.17,299.00 1012.17,354.00 1012.17,354.00
             1012.17,354.00 1004.17,438.00 1004.17,438.00
             1002.03,460.09 999.57,489.98 993.57,511.00
             982.32,550.46 958.98,586.49 927.00,612.20
             913.78,622.82 897.51,633.00 882.00,639.86
             867.46,646.29 841.63,656.28 826.00,657.00
             830.30,661.38 836.74,664.15 842.00,667.42
             850.12,672.48 859.71,679.29 867.00,685.44
             893.83,708.07 914.94,743.08 915.00,779.00
             915.00,779.00 915.00,789.00 915.00,789.00
             914.91,796.67 912.71,808.44 910.87,816.00
             901.63,854.03 882.33,879.82 856.09,908.00
             833.76,931.97 809.15,953.42 781.00,970.40
             759.73,983.23 728.15,996.70 703.00,997.00
             684.27,997.22 674.33,996.80 656.00,991.57
             593.70,973.80 553.85,911.62 528.31,856.00
             528.31,856.00 512.00,818.00 512.00,818.00
             512.00,818.00 496.69,854.00 496.69,854.00
             470.25,911.59 429.78,975.12 365.00,992.85
             349.26,997.15 339.97,997.18 324.00,997.00
             297.02,996.68 266.83,984.72 244.00,971.00
             224.09,959.03 213.29,950.60 196.00,935.16
             196.00,935.16 181.00,921.96 181.00,921.96
             181.00,921.96 165.91,906.00 165.91,906.00
             140.83,879.03 121.94,852.24 113.13,816.00
             111.17,807.93 109.10,796.23 109.00,788.00
             108.51,746.13 124.89,712.53 157.00,685.44
             164.31,679.28 173.87,672.49 182.00,667.42
             186.87,664.39 194.13,660.88 198.00,657.00
             182.56,656.28 151.18,644.34 137.00,637.25
             115.99,626.74 100.09,616.34 83.00,599.96
             58.82,576.80 39.98,544.26 31.15,512.00
             25.36,490.84 23.48,469.63 20.72,448.00
             20.72,448.00 18.28,432.00 18.28,432.00
             18.28,432.00 15.83,405.00 15.83,405.00
             15.83,405.00 8.91,325.00 8.91,325.00
             8.91,325.00 3.91,254.00 3.91,254.00
             3.91,254.00 2.00,228.00 2.00,228.00
             2.00,228.00 2.00,205.00 2.00,205.00
             2.00,205.00 3.85,184.00 3.85,184.00
             7.42,154.13 17.71,125.36 44.00,108.08
             50.01,104.12 56.13,100.95 63.00,98.75
             78.97,93.62 92.52,94.97 109.00,95.00
             125.00,95.02 144.05,101.36 159.00,106.95
             197.36,121.30 228.19,141.15 260.00,166.60
             278.61,181.49 296.96,197.37 314.00,214.01
             314.00,214.01 326.04,227.00 326.04,227.00
             326.04,227.00 379.08,286.00 379.08,286.00
             411.37,324.64 441.40,365.10 469.33,407.00
             479.55,422.33 504.30,460.54 511.00,476.00
             511.00,476.00 513.00,476.00 513.00,476.00 Z
           M 89.00,135.28
           C 79.05,136.75 72.32,138.04 64.00,144.53
             47.69,157.24 43.03,188.40 43.00,208.00
             43.00,208.00 43.00,226.00 43.00,226.00
             43.00,226.00 43.91,238.00 43.91,238.00
             43.91,238.00 45.91,266.00 45.91,266.00
             45.91,266.00 48.09,302.00 48.09,302.00
             48.09,302.00 50.09,329.00 50.09,329.00
             50.09,329.00 50.99,338.00 50.99,338.00
             50.99,338.00 54.83,382.00 54.83,382.00
             54.83,382.00 59.17,428.00 59.17,428.00
             59.17,428.00 61.72,445.00 61.72,445.00
             65.96,479.01 67.35,502.71 84.31,534.00
             106.62,575.17 146.58,601.69 191.00,613.85
             206.25,618.02 234.40,622.98 250.00,623.00
             250.00,623.00 279.00,623.00 279.00,623.00
             279.00,623.00 296.00,622.00 296.00,622.00
             296.00,622.00 313.00,622.00 313.00,622.00
             318.95,622.01 321.94,622.03 326.96,625.79
             337.43,633.61 337.96,649.06 327.91,657.47
             322.32,662.15 316.71,662.50 310.00,664.13
             310.00,664.13 274.00,672.71 274.00,672.71
             236.82,683.24 190.16,703.17 166.75,735.00
             161.87,741.64 157.11,750.27 154.23,758.00
             151.95,764.13 150.08,775.45 150.00,782.00
             149.48,827.84 181.42,863.77 212.00,894.00
             212.00,894.00 234.00,913.71 234.00,913.71
             243.86,922.24 254.85,929.31 266.00,936.00
             284.76,947.26 309.74,957.07 332.00,956.26
             393.90,953.99 429.91,895.69 454.75,846.00
             454.75,846.00 466.85,819.00 466.85,819.00
             466.85,819.00 480.66,783.00 480.66,783.00
             480.66,783.00 489.52,758.00 489.52,758.00
             493.36,749.55 500.30,742.51 510.00,742.04
             528.80,741.13 533.01,754.52 538.42,769.00
             538.42,769.00 551.42,805.00 551.42,805.00
             558.77,824.47 567.72,843.52 577.26,862.00
             585.60,878.18 600.06,900.59 612.17,914.00
             622.03,924.92 633.20,935.20 646.00,942.57
             652.67,946.41 661.59,950.47 669.00,952.57
             708.88,963.87 744.05,947.00 776.00,924.14
             788.78,915.00 799.85,906.14 811.00,895.00
             811.00,895.00 832.28,873.00 832.28,873.00
             856.08,845.64 874.44,817.61 874.00,780.00
             873.88,769.76 870.78,759.09 866.25,750.00
             849.75,716.93 818.73,699.20 786.00,685.15
             777.44,681.48 764.88,676.58 756.00,674.15
             756.00,674.15 713.00,662.66 713.00,662.66
             706.82,660.68 700.05,659.26 695.18,654.67
             682.19,642.43 690.17,620.25 709.00,620.00
             709.00,620.00 752.00,623.00 752.00,623.00
             752.00,623.00 775.00,623.00 775.00,623.00
             785.16,622.98 797.89,620.94 808.00,619.25
             855.39,611.33 899.78,590.64 928.85,551.00
             960.56,507.76 960.25,464.77 965.17,414.00
             965.17,414.00 969.83,369.00 969.83,369.00
             969.83,369.00 975.17,308.00 975.17,308.00
             975.17,308.00 978.09,274.00 978.09,274.00
             978.09,274.00 979.00,264.00 979.00,264.00
             979.00,264.00 980.00,241.00 980.00,241.00
             980.00,241.00 981.00,228.00 981.00,228.00
             981.30,202.39 981.97,166.76 962.91,147.04
             954.72,138.57 941.52,135.13 930.00,135.00
             896.85,134.63 863.09,151.31 835.00,167.28
             813.15,179.70 803.02,188.04 784.00,203.92
             784.00,203.92 759.00,225.17 759.00,225.17
             759.00,225.17 748.00,235.91 748.00,235.91
             690.73,289.27 632.26,364.61 588.67,430.00
             570.17,457.74 553.16,486.71 537.23,516.00
             530.55,528.28 523.75,542.37 507.00,538.61
             495.03,535.92 486.89,516.06 481.15,506.00
             463.83,475.66 446.32,445.67 426.28,417.00
             367.14,332.37 301.19,248.43 218.00,186.13
             195.06,168.95 168.02,153.96 141.00,144.31
             124.34,138.36 106.86,133.62 89.00,135.28 Z" />
</svg>
