<?xml version="1.0" encoding="UTF-8" standalone="no"?>
<!DOCTYPE svg PUBLIC "-//W3C//DTD SVG 20010904//EN"
              "http://www.w3.org/TR/2001/REC-SVG-20010904/DTD/svg10.dtd">

<svg xmlns="http://www.w3.org/2000/svg"
     width="3.41333in" height="3.41333in"
     viewBox="0 0 1024 1024">
  <path id="選択範囲 #5"
        fill="#454351" stroke="none" stroke-width="1"
        d="M 256.00,223.00
           C 256.00,223.00 294.00,223.00 294.00,223.00
             296.27,223.00 299.66,223.22 301.61,221.98
             304.09,220.40 305.72,215.68 306.80,213.00
             306.80,213.00 314.80,193.00 314.80,193.00
             314.80,193.00 342.99,124.00 342.99,124.00
             348.74,110.05 350.24,100.03 368.00,100.00
             368.00,100.00 616.00,100.00 616.00,100.00
             633.76,100.03 635.26,110.05 641.01,124.00
             641.01,124.00 669.20,193.00 669.20,193.00
             669.20,193.00 676.80,212.00 676.80,212.00
             677.82,214.55 679.65,219.64 681.64,221.40
             683.49,223.05 685.68,222.95 688.00,223.00
             688.00,223.00 774.00,223.00 774.00,223.00
             774.00,223.00 945.00,223.00 945.00,223.00
             945.00,223.00 1002.00,223.00 1002.00,223.00
             1016.14,223.02 1022.98,229.86 1023.00,244.00
             1023.00,244.00 1023.00,751.00 1023.00,751.00
             1023.00,751.00 1023.00,884.00 1023.00,884.00
             1023.00,886.60 1023.11,889.50 1022.35,892.00
             1019.37,901.90 1011.39,904.98 1002.00,905.00
             1002.00,905.00 234.00,905.00 234.00,905.00
             234.00,905.00 54.00,905.00 54.00,905.00
             54.00,905.00 27.00,905.00 27.00,905.00
             23.42,905.00 16.12,905.30 13.00,904.35
             7.35,902.65 2.35,897.65 0.65,892.00
             -0.11,889.50 0.00,886.60 0.00,884.00
             0.00,884.00 0.00,377.00 0.00,377.00
             0.00,377.00 0.00,244.00 0.00,244.00
             0.02,234.61 3.10,226.63 13.00,223.65
             15.50,222.89 18.40,223.00 21.00,223.00
             21.00,223.00 73.00,223.00 73.00,223.00
             73.00,223.00 73.65,189.00 73.65,189.00
             75.35,183.36 80.36,178.35 86.00,176.65
             88.50,175.89 91.40,176.00 94.00,176.00
             94.00,176.00 218.00,176.00 218.00,176.00
             231.37,176.00 250.35,172.43 255.35,189.00
             256.11,191.50 256.00,194.40 256.00,197.00
             256.00,197.00 256.00,223.00 256.00,223.00 Z
           M 636.00,223.00
           C 636.00,223.00 627.01,199.00 627.01,199.00
             627.01,199.00 610.80,159.00 610.80,159.00
             610.80,159.00 602.36,140.99 602.36,140.99
             602.36,140.99 595.00,140.00 595.00,140.00
             595.00,140.00 389.00,140.00 389.00,140.00
             389.00,140.00 381.64,140.99 381.64,140.99
             381.64,140.99 373.20,159.00 373.20,159.00
             373.20,159.00 356.99,199.00 356.99,199.00
             356.99,199.00 348.00,223.00 348.00,223.00
             348.00,223.00 636.00,223.00 636.00,223.00 Z
           M 216.00,216.00
           C 216.00,216.00 113.00,216.00 113.00,216.00
             113.00,216.00 113.00,223.00 113.00,223.00
             113.00,223.00 216.00,223.00 216.00,223.00
             216.00,223.00 216.00,216.00 216.00,216.00 Z
           M 983.00,263.00
           C 983.00,263.00 40.00,263.00 40.00,263.00
             40.00,263.00 40.00,865.00 40.00,865.00
             40.00,865.00 983.00,865.00 983.00,865.00
             983.00,865.00 983.00,263.00 983.00,263.00 Z
           M 480.00,293.42
           C 497.20,291.33 526.60,295.43 544.00,298.58
             626.69,313.52 697.24,368.02 734.73,443.00
             748.21,469.96 757.08,500.10 760.72,530.00
             760.72,530.00 762.09,550.00 762.09,550.00
             762.09,550.00 763.00,560.00 763.00,560.00
             763.00,560.00 762.00,582.00 762.00,582.00
             761.85,594.91 757.57,617.22 754.37,630.00
             742.68,676.77 717.39,723.03 683.00,756.99
             655.10,784.53 620.71,805.49 584.00,818.95
             562.68,826.76 527.65,833.96 505.00,834.00
             505.00,834.00 476.00,834.00 476.00,834.00
             476.00,834.00 466.00,833.08 466.00,833.08
             443.21,831.26 421.54,826.31 400.00,818.69
             365.32,806.42 331.91,785.98 305.00,760.91
             218.69,680.50 198.43,547.94 249.26,443.00
             280.08,379.35 338.09,329.66 405.00,307.35
             417.35,303.24 440.22,297.55 453.00,296.16
             453.00,296.16 480.00,293.42 480.00,293.42 Z
           M 482.00,334.28
           C 461.01,337.30 448.44,337.33 427.00,343.72
             372.33,360.01 326.64,394.46 296.42,443.00
             238.25,536.45 256.82,664.35 340.00,736.71
             380.07,771.57 426.46,789.25 479.00,793.09
             479.00,793.09 486.00,793.90 486.00,793.90
             486.00,793.90 498.00,793.00 498.00,793.00
             530.94,792.62 563.47,785.01 593.00,770.25
             619.65,756.92 641.74,741.25 661.83,719.00
             697.38,679.64 718.73,627.92 721.04,575.00
             721.04,575.00 722.00,562.00 722.00,562.00
             722.00,562.00 720.96,552.00 720.96,552.00
             720.96,552.00 720.96,543.00 720.96,543.00
             717.73,510.43 708.08,479.57 692.14,451.00
             678.54,426.63 661.10,406.18 640.00,388.00
             618.58,369.54 591.77,355.26 565.00,346.33
             542.98,338.99 504.98,332.15 482.00,334.28 Z" />
</svg>
