<?xml version="1.0" encoding="UTF-8" standalone="no"?>
<!DOCTYPE svg PUBLIC "-//W3C//DTD SVG 20010904//EN"
              "http://www.w3.org/TR/2001/REC-SVG-20010904/DTD/svg10.dtd">

<svg xmlns="http://www.w3.org/2000/svg"
     width="3.41333in" height="3.41333in"
     viewBox="0 0 1024 1024">
  <path id="選択範囲 #25"
        fill="#454351" stroke="none" stroke-width="1"
        d="M 15.00,163.65
           C 20.85,162.44 36.17,163.00 43.00,163.00
             43.00,163.00 96.00,163.00 96.00,163.00
             96.00,163.00 263.00,163.00 263.00,163.00
             263.00,163.00 789.00,163.00 789.00,163.00
             789.00,163.00 968.00,163.00 968.00,163.00
             968.00,163.00 995.00,163.00 995.00,163.00
             998.58,163.00 1005.88,162.70 1009.00,163.65
             1014.64,165.35 1019.65,170.36 1021.35,176.00
             1022.11,178.50 1022.00,181.40 1022.00,184.00
             1022.00,184.00 1022.00,285.00 1022.00,285.00
             1022.00,285.00 1022.00,317.00 1022.00,317.00
             1022.00,317.00 1022.00,338.00 1022.00,338.00
             1022.00,338.00 1022.00,740.00 1022.00,740.00
             1022.00,740.00 1022.00,840.00 1022.00,840.00
             1022.00,842.60 1022.11,845.50 1021.35,848.00
             1018.37,857.90 1010.39,860.98 1001.00,861.00
             1001.00,861.00 235.00,861.00 235.00,861.00
             235.00,861.00 56.00,861.00 56.00,861.00
             56.00,861.00 29.00,861.00 29.00,861.00
             25.42,861.00 18.13,860.91 15.01,859.97
             9.37,858.26 4.99,853.65 3.29,848.01
             2.54,845.50 2.00,842.60 2.00,840.00
             2.00,840.00 2.00,205.00 2.00,205.00
             2.00,205.00 2.00,189.00 2.00,189.00
             2.00,176.83 1.71,168.94 15.00,163.65 Z
           M 982.00,203.00
           C 982.00,203.00 42.00,203.00 42.00,203.00
             42.00,203.00 42.00,305.00 42.00,305.00
             42.00,305.00 982.00,306.00 982.00,306.00
             982.00,306.00 982.00,203.00 982.00,203.00 Z
           M 71.00,227.63
           C 77.13,226.41 86.26,226.54 92.00,229.19
             108.20,236.67 112.43,260.97 100.53,273.82
             94.32,280.53 86.69,282.10 78.00,282.00
             56.94,281.75 45.51,259.09 54.66,241.00
             58.14,234.12 63.94,230.23 71.00,227.63 Z
           M 137.00,227.63
           C 143.13,226.41 152.26,226.54 158.00,229.19
             174.20,236.67 178.43,260.97 166.53,273.82
             160.32,280.53 152.69,282.10 144.00,282.00
             122.94,281.75 111.51,259.09 120.66,241.00
             124.14,234.12 129.94,230.23 137.00,227.63 Z
           M 203.00,227.63
           C 209.13,226.41 218.26,226.54 224.00,229.19
             240.20,236.67 244.43,260.97 232.53,273.82
             226.32,280.53 218.69,282.10 210.00,282.00
             188.94,281.75 177.51,259.09 186.66,241.00
             190.14,234.12 195.94,230.23 203.00,227.63 Z
           M 982.00,347.00
           C 982.00,347.00 42.00,346.00 42.00,346.00
             42.00,346.00 42.00,821.00 42.00,821.00
             42.00,821.00 982.00,821.00 982.00,821.00
             982.00,821.00 982.00,347.00 982.00,347.00 Z
           M 320.00,591.00
           C 320.00,591.00 405.67,676.00 405.67,676.00
             415.17,687.52 413.28,705.49 398.00,710.53
             382.27,715.73 372.87,702.87 363.00,693.00
             363.00,693.00 277.92,607.71 274.48,602.00
             272.16,598.16 269.62,591.87 271.40,587.45
             271.40,587.45 277.99,575.00 277.99,575.00
             281.61,569.11 373.00,475.10 373.00,475.10
             384.55,464.70 402.46,468.14 407.15,482.00
             408.06,484.70 408.06,488.15 407.98,491.00
             407.71,500.85 402.24,504.28 396.17,511.00
             396.17,511.00 320.00,591.00 320.00,591.00 Z
           M 704.00,590.00
           C 704.00,590.00 627.83,511.00 627.83,511.00
             621.76,504.28 616.29,500.85 616.02,491.00
             615.43,469.99 636.27,463.52 649.00,473.39
             656.40,479.13 742.92,569.67 746.15,575.00
             746.15,575.00 752.59,586.62 753.07,589.33
             755.06,600.59 737.26,615.74 730.00,623.00
             730.00,623.00 648.69,707.35 640.00,710.45
             624.12,716.13 609.02,702.32 613.04,686.00
             615.35,676.63 704.00,590.00 704.00,590.00 Z
           M 543.00,483.47
           C 557.09,481.54 567.59,490.59 566.96,505.00
             566.67,511.60 489.65,688.00 489.65,688.00
             478.21,707.05 449.28,696.76 451.34,676.00
             451.86,670.69 455.55,663.03 457.72,658.00
             457.72,658.00 523.85,504.00 523.85,504.00
             525.88,499.26 527.73,493.91 531.21,490.04
             534.88,485.96 537.83,484.70 543.00,483.47 Z" />
</svg>
