<?xml version="1.0" encoding="UTF-8" standalone="no"?>
<!DOCTYPE svg PUBLIC "-//W3C//DTD SVG 20010904//EN"
              "http://www.w3.org/TR/2001/REC-SVG-20010904/DTD/svg10.dtd">

<svg xmlns="http://www.w3.org/2000/svg"
     width="3.41333in" height="3.41333in"
     viewBox="0 0 1024 1024">
  <path id="選択範囲 #12"
        fill="#454351" stroke="black" stroke-width="1"
        d="M 196.00,744.00
           C 202.98,747.75 209.08,755.74 213.99,762.00
             220.05,769.74 229.45,785.09 233.68,794.00
             242.16,811.84 243.51,821.71 258.09,836.99
             271.74,851.29 294.57,861.47 314.00,864.68
             314.00,864.68 321.00,865.29 321.00,865.29
             326.63,865.99 328.82,866.92 335.00,867.00
             346.07,867.13 346.44,866.09 356.00,864.93
             356.00,864.93 364.00,864.93 364.00,864.93
             375.92,863.00 373.95,861.82 388.00,862.00
             401.14,862.18 406.98,870.67 407.00,883.00
             407.00,883.00 407.00,909.00 407.00,909.00
             407.00,909.00 408.00,925.00 408.00,925.00
             408.00,925.00 408.00,971.00 408.00,971.00
             407.89,993.80 392.75,1012.89 369.00,1013.00
             369.00,1013.00 362.00,1013.00 362.00,1013.00
             349.95,1012.86 324.76,1002.35 313.00,997.28
             277.38,981.92 242.06,962.13 211.00,938.87
             146.16,890.32 99.78,836.14 61.31,765.00
             51.24,746.38 43.53,726.56 35.55,707.00
             35.55,707.00 28.33,686.00 28.33,686.00
             22.07,666.80 16.21,646.86 12.46,627.00
             9.42,610.91 3.02,561.47 3.00,546.00
             3.00,546.00 3.00,503.00 3.00,503.00
             3.00,503.00 5.00,474.00 5.00,474.00
             5.00,474.00 15.38,405.68 21.42,385.00
             21.42,385.00 28.28,364.00 28.28,364.00
             73.79,212.92 195.31,92.25 343.00,39.69
             369.99,30.09 397.86,23.65 426.00,18.58
             448.47,14.52 494.00,11.00 494.00,11.00
             494.00,11.00 541.00,11.91 541.00,11.91
             541.00,11.91 572.00,14.29 572.00,14.29
             572.00,14.29 598.00,18.41 598.00,18.41
             707.50,36.02 809.42,91.97 884.91,173.00
             901.02,190.29 915.41,208.81 929.14,228.00
             971.43,287.11 1001.39,361.37 1013.41,433.00
             1016.16,449.39 1020.98,480.20 1021.00,496.00
             1021.00,496.00 1021.00,546.00 1021.00,546.00
             1021.00,546.00 1019.96,567.00 1019.96,567.00
             1019.96,567.00 1016.28,593.00 1016.28,593.00
             1016.28,593.00 1011.49,627.00 1011.49,627.00
             1011.49,627.00 1005.87,649.00 1005.87,649.00
             1005.87,649.00 999.28,675.00 999.28,675.00
             968.01,779.93 905.35,867.67 819.00,934.58
             787.23,959.19 749.88,980.37 713.00,996.28
             700.00,1001.89 675.63,1012.84 662.00,1013.00
             662.00,1013.00 654.00,1013.00 654.00,1013.00
             629.98,1012.71 616.04,992.48 616.00,970.00
             616.00,970.00 616.00,907.00 616.00,907.00
             616.00,907.00 617.00,890.00 617.00,890.00
             617.00,890.00 617.00,853.00 617.00,853.00
             617.00,853.00 616.00,840.00 616.00,840.00
             616.00,840.00 616.00,827.00 616.00,827.00
             615.79,809.12 610.70,788.38 601.55,773.00
             594.92,761.86 586.85,756.54 587.00,743.00
             587.05,739.35 587.15,737.32 588.92,734.00
             595.78,721.14 613.47,722.84 626.00,720.58
             654.56,715.42 683.07,708.11 709.00,694.74
             719.95,689.10 733.89,680.03 743.00,671.83
             753.56,662.33 765.11,649.89 772.92,638.00
             789.85,612.23 797.03,586.93 802.42,557.00
             804.66,544.61 806.98,530.57 807.00,518.00
             807.00,518.00 807.00,486.00 807.00,486.00
             806.71,461.35 796.12,429.08 783.55,408.00
             783.55,408.00 770.55,389.00 770.55,389.00
             766.17,383.49 761.56,378.92 759.44,372.00
             756.14,361.23 759.92,354.17 762.52,344.00
             764.24,337.31 766.92,319.75 767.00,313.00
             767.00,313.00 767.00,307.00 767.00,307.00
             766.98,295.94 763.78,275.83 760.85,265.00
             759.94,261.63 758.38,252.95 754.78,251.88
             753.01,251.36 747.96,252.42 746.00,252.80
             746.00,252.80 726.00,258.33 726.00,258.33
             706.66,264.78 688.42,274.09 671.00,284.60
             662.38,289.80 648.38,300.31 639.00,301.70
             624.67,303.82 608.98,296.71 595.00,294.44
             595.00,294.44 549.00,288.17 549.00,288.17
             549.00,288.17 527.00,286.91 527.00,286.91
             527.00,286.91 509.00,286.00 509.00,286.00
             509.00,286.00 499.00,286.91 499.00,286.91
             499.00,286.91 467.00,289.17 467.00,289.17
             467.00,289.17 443.00,292.73 443.00,292.73
             443.00,292.73 429.00,294.46 429.00,294.46
             417.12,296.62 405.21,301.71 393.00,301.99
             377.89,302.33 367.38,292.83 355.00,285.40
             336.59,274.36 319.47,265.18 299.00,258.35
             299.00,258.35 279.00,252.81 279.00,252.81
             277.00,252.40 271.96,251.36 270.14,251.88
             266.69,252.87 265.69,258.93 264.88,262.00
             262.05,272.78 259.02,283.79 259.00,295.00
             259.00,295.00 259.00,325.00 259.00,325.00
             259.19,340.77 269.06,356.19 265.24,371.00
             263.11,379.28 257.47,385.34 252.47,392.00
             247.68,398.40 243.40,405.06 239.43,412.00
             226.25,435.03 220.36,457.87 217.83,484.00
             217.83,484.00 217.00,493.00 217.00,493.00
             216.35,548.73 227.68,614.23 266.17,657.00
             281.98,674.57 301.77,688.49 323.00,698.74
             323.00,698.74 336.00,703.81 336.00,703.81
             359.88,712.86 375.94,716.86 401.00,721.39
             412.61,723.48 427.55,721.54 434.52,733.01
             436.73,736.66 436.95,738.87 437.00,743.00
             437.03,745.53 437.08,748.58 436.35,751.00
             436.35,751.00 420.37,777.00 420.37,777.00
             417.65,782.36 413.75,793.09 412.42,799.00
             410.93,805.67 410.72,812.11 406.75,817.99
             401.41,825.90 392.66,829.14 384.00,832.00
             361.49,839.44 350.25,840.27 327.00,840.00
             322.10,839.94 318.76,839.21 314.00,838.41
             284.03,833.37 261.12,816.92 242.88,793.00
             232.09,778.84 225.82,765.08 212.00,753.44
             207.31,749.49 202.18,745.00 196.00,744.00 Z
           M 658.00,973.00
           C 717.10,953.66 772.29,922.28 819.00,881.15
             860.02,845.04 895.62,802.21 921.69,754.00
             936.64,726.37 950.30,695.12 959.28,665.00
             959.28,665.00 965.37,641.00 965.37,641.00
             965.37,641.00 971.54,617.00 971.54,617.00
             971.54,617.00 975.13,591.00 975.13,591.00
             975.13,591.00 979.09,556.00 979.09,556.00
             979.09,556.00 980.00,544.00 980.00,544.00
             980.00,544.00 980.00,498.00 980.00,498.00
             979.97,481.66 976.60,465.15 974.27,449.00
             964.25,379.52 936.77,311.74 896.98,254.00
             872.27,218.15 844.40,187.96 811.00,160.08
             772.07,127.58 728.48,101.49 681.00,83.58
             631.49,64.90 591.66,56.53 539.00,52.91
             539.00,52.91 517.00,51.00 517.00,51.00
             517.00,51.00 483.00,52.91 483.00,52.91
             483.00,52.91 463.00,54.17 463.00,54.17
             431.57,57.22 386.96,68.26 357.00,78.66
             304.29,96.95 260.48,122.08 217.00,157.00
             183.34,184.03 148.66,222.02 124.67,258.00
             104.19,288.70 86.77,321.31 74.05,356.00
             74.05,356.00 68.00,375.00 68.00,375.00
             68.00,375.00 54.51,422.00 54.51,422.00
             54.51,422.00 50.58,447.00 50.58,447.00
             48.64,459.50 45.06,476.90 45.00,489.00
             45.00,489.00 44.00,505.00 44.00,505.00
             44.00,505.00 44.00,544.00 44.00,544.00
             44.02,557.62 49.79,602.86 52.46,617.00
             63.19,673.87 88.17,734.58 119.69,783.00
             145.32,822.35 176.98,858.02 213.00,888.08
             254.85,923.00 313.46,957.65 366.00,973.00
             370.63,958.95 367.02,941.54 367.00,927.00
             367.00,927.00 367.00,906.00 367.00,906.00
             367.00,906.00 350.00,907.00 350.00,907.00
             350.00,907.00 324.00,907.00 324.00,907.00
             313.97,906.88 304.64,904.88 295.00,902.37
             262.93,894.03 238.07,879.74 217.65,853.00
             202.99,833.79 199.42,811.57 182.62,789.00
             178.61,783.60 174.02,778.65 169.00,774.17
             163.64,769.39 158.68,767.01 153.00,762.96
             138.74,752.79 122.44,734.86 130.90,716.00
             132.40,712.67 134.56,709.66 137.09,707.04
             140.59,703.41 144.40,700.89 149.00,698.87
             185.78,682.81 232.48,711.06 255.38,739.00
             269.04,755.65 274.29,771.63 293.00,785.52
             306.43,795.50 316.78,797.98 333.00,799.09
             336.09,799.30 337.77,799.93 341.00,799.68
             341.00,799.68 372.00,793.00 372.00,793.00
             372.00,793.00 382.00,759.00 382.00,759.00
             376.57,758.56 372.25,757.33 367.00,756.21
             345.65,751.67 346.86,751.24 327.00,744.34
             305.45,736.86 294.12,731.44 275.00,718.67
             264.47,711.64 251.93,701.90 243.01,692.99
             217.33,667.30 198.33,630.76 188.43,596.00
             188.43,596.00 183.00,571.00 183.00,571.00
             180.63,558.89 178.76,547.31 177.91,535.00
             177.91,535.00 177.00,523.00 177.00,523.00
             177.00,523.00 177.00,481.00 177.00,481.00
             177.04,452.74 189.95,416.65 203.31,392.00
             203.31,392.00 216.72,371.00 216.72,371.00
             218.50,368.47 222.41,363.77 223.10,361.00
             223.88,357.91 221.74,352.30 221.01,349.00
             219.41,341.72 218.01,334.47 218.00,327.00
             218.00,327.00 218.00,293.00 218.00,293.00
             218.02,277.20 223.14,257.20 227.72,242.00
             232.63,225.71 241.03,211.23 260.00,211.00
             260.00,211.00 276.00,211.00 276.00,211.00
             284.38,211.10 294.86,214.26 303.00,216.58
             320.84,221.67 341.86,230.32 358.00,239.42
             358.00,239.42 382.00,253.40 382.00,253.40
             385.52,255.51 391.02,259.55 395.00,259.78
             400.02,260.08 409.87,256.44 415.00,255.24
             415.00,255.24 433.00,252.72 433.00,252.72
             433.00,252.72 448.00,250.27 448.00,250.27
             448.00,250.27 497.00,246.00 497.00,246.00
             497.00,246.00 531.00,246.00 531.00,246.00
             531.00,246.00 543.00,246.91 543.00,246.91
             543.00,246.91 605.00,254.29 605.00,254.29
             611.68,255.34 625.92,261.07 632.00,259.48
             632.00,259.48 659.00,243.78 659.00,243.78
             680.74,232.23 692.32,226.20 716.00,218.33
             724.84,215.40 740.89,211.11 750.00,211.00
             750.00,211.00 765.00,211.00 765.00,211.00
             784.38,211.23 791.28,224.79 796.67,241.00
             807.37,273.22 807.38,291.80 807.00,325.00
             806.92,331.40 804.90,342.52 803.60,349.00
             802.95,352.25 801.02,358.06 801.94,361.00
             802.76,363.62 807.46,369.40 809.28,372.00
             809.28,372.00 822.57,393.00 822.57,393.00
             831.63,408.83 837.27,426.45 841.88,444.00
             844.78,455.02 846.98,461.19 847.00,473.00
             847.00,473.00 847.00,531.00 847.00,531.00
             846.97,547.79 840.17,582.59 835.28,599.00
             827.29,625.79 816.39,649.67 799.35,672.00
             770.04,710.38 733.14,732.62 688.00,747.67
             674.26,752.25 656.31,757.07 642.00,759.00
             642.00,759.00 648.66,777.00 648.66,777.00
             651.61,785.54 653.41,794.07 654.73,803.00
             654.73,803.00 657.00,827.00 657.00,827.00
             657.00,827.00 657.00,910.00 657.00,910.00
             657.00,910.00 656.00,925.00 656.00,925.00
             656.00,925.00 656.00,950.00 656.00,950.00
             656.00,958.47 655.29,964.79 658.00,973.00 Z
           M 196.00,742.00
           C 196.00,742.00 195.00,742.00 195.00,742.00
             195.00,742.00 196.00,743.00 196.00,743.00
             196.00,743.00 196.00,742.00 196.00,742.00 Z" />
</svg>
