<?xml version="1.0" encoding="UTF-8" standalone="no"?>
<!DOCTYPE svg PUBLIC "-//W3C//DTD SVG 20010904//EN"
              "http://www.w3.org/TR/2001/REC-SVG-20010904/DTD/svg10.dtd">

<svg xmlns="http://www.w3.org/2000/svg"
     width="3.41333in" height="3.41333in"
     viewBox="0 0 1024 1024">
  <path id="選択範囲 #10"
        fill="#454351" stroke="black" stroke-width="1"
        d="M 80.00,265.00
           C 80.00,265.00 21.00,265.00 21.00,265.00
             18.40,265.00 15.50,265.11 13.00,264.35
             3.10,261.37 0.02,253.39 0.00,244.00
             0.00,244.00 0.00,110.00 0.00,110.00
             0.02,100.61 3.10,92.63 13.00,89.65
             15.50,88.89 18.40,89.00 21.00,89.00
             21.00,89.00 790.00,89.00 790.00,89.00
             790.00,89.00 970.00,89.00 970.00,89.00
             970.00,89.00 997.00,89.00 997.00,89.00
             1000.58,89.00 1007.88,88.70 1011.00,89.65
             1016.64,91.35 1021.65,96.36 1023.35,102.00
             1024.11,104.50 1024.00,107.40 1024.00,110.00
             1024.00,110.00 1024.00,244.00 1024.00,244.00
             1023.98,258.14 1017.14,264.98 1003.00,265.00
             1003.00,265.00 944.00,265.00 944.00,265.00
             944.00,265.00 944.00,760.00 944.00,760.00
             944.00,760.00 1003.00,760.00 1003.00,760.00
             1017.13,760.02 1023.98,766.87 1024.00,781.00
             1024.00,781.00 1024.00,915.00 1024.00,915.00
             1024.00,917.60 1024.11,920.50 1023.35,923.00
             1020.37,932.90 1012.39,935.98 1003.00,936.00
             1003.00,936.00 234.00,936.00 234.00,936.00
             234.00,936.00 54.00,936.00 54.00,936.00
             54.00,936.00 27.00,936.00 27.00,936.00
             23.42,936.00 16.12,936.30 13.00,935.35
             7.35,933.65 2.35,928.65 0.65,923.00
             -0.11,920.50 0.00,917.60 0.00,915.00
             0.00,915.00 0.00,781.00 0.00,781.00
             0.02,771.61 3.10,763.63 13.00,760.65
             15.50,759.89 18.40,760.00 21.00,760.00
             21.00,760.00 80.00,760.00 80.00,760.00
             80.00,760.00 80.00,265.00 80.00,265.00 Z
           M 190.00,129.00
           C 190.00,129.00 71.00,129.00 71.00,129.00
             71.00,129.00 71.00,225.00 71.00,225.00
             71.00,225.00 190.00,225.00 190.00,225.00
             190.00,225.00 190.00,129.00 190.00,129.00 Z
           M 381.00,129.00
           C 381.00,129.00 262.00,129.00 262.00,129.00
             262.00,129.00 262.00,225.00 262.00,225.00
             262.00,225.00 381.00,225.00 381.00,225.00
             381.00,225.00 381.00,129.00 381.00,129.00 Z
           M 572.00,129.00
           C 572.00,129.00 453.00,129.00 453.00,129.00
             453.00,129.00 453.00,225.00 453.00,225.00
             453.00,225.00 572.00,225.00 572.00,225.00
             572.00,225.00 572.00,129.00 572.00,129.00 Z
           M 763.00,129.00
           C 763.00,129.00 644.00,129.00 644.00,129.00
             644.00,129.00 644.00,225.00 644.00,225.00
             644.00,225.00 763.00,225.00 763.00,225.00
             763.00,225.00 763.00,129.00 763.00,129.00 Z
           M 953.00,129.00
           C 953.00,129.00 834.00,129.00 834.00,129.00
             834.00,129.00 834.00,225.00 834.00,225.00
             834.00,225.00 953.00,225.00 953.00,225.00
             953.00,225.00 953.00,129.00 953.00,129.00 Z
           M 904.00,265.00
           C 904.00,265.00 120.00,265.00 120.00,265.00
             120.00,265.00 120.00,760.00 120.00,760.00
             120.00,760.00 904.00,760.00 904.00,760.00
             904.00,760.00 904.00,265.00 904.00,265.00 Z
           M 453.00,495.00
           C 453.00,495.00 453.00,604.00 453.00,604.00
             453.00,606.05 453.11,609.10 452.40,610.99
             450.41,616.25 438.07,623.32 433.00,626.14
             418.09,634.44 396.12,640.97 379.00,641.00
             379.00,641.00 359.00,641.00 359.00,641.00
             350.16,640.89 335.47,637.80 327.00,635.00
             285.75,621.37 259.44,591.52 250.80,549.00
             249.54,542.80 248.08,534.26 248.00,528.00
             247.72,503.34 247.21,485.84 255.69,462.00
             259.93,450.08 267.46,435.77 275.46,426.00
             295.48,401.59 329.11,384.05 361.00,384.00
             390.51,383.95 405.01,384.51 431.00,401.05
             435.47,403.90 441.08,408.00 444.94,411.59
             446.91,413.42 448.80,415.07 447.85,418.00
             447.20,420.00 442.63,425.13 441.08,427.00
             441.08,427.00 426.25,445.00 426.25,445.00
             424.59,446.99 420.15,452.95 417.83,453.55
             414.76,454.34 404.33,445.43 401.00,443.45
             389.30,436.48 382.11,435.98 369.00,436.00
             330.11,436.06 309.05,473.99 309.00,509.00
             308.96,537.27 314.90,566.89 342.00,581.69
             354.31,588.41 364.41,589.02 378.00,589.00
             384.09,588.99 395.65,587.84 398.98,581.89
             400.19,579.72 400.00,576.45 400.00,574.00
             400.00,574.00 400.00,544.00 400.00,544.00
             400.00,544.00 360.00,544.00 360.00,544.00
             360.00,544.00 360.00,495.00 360.00,495.00
             360.00,495.00 453.00,495.00 453.00,495.00 Z
           M 619.00,387.00
           C 619.00,387.00 777.00,387.00 777.00,387.00
             777.00,387.00 777.00,437.00 777.00,437.00
             777.00,437.00 678.00,437.00 678.00,437.00
             678.00,437.00 678.00,491.00 678.00,491.00
             678.00,491.00 763.00,491.00 763.00,491.00
             763.00,491.00 763.00,541.00 763.00,541.00
             763.00,541.00 678.00,541.00 678.00,541.00
             678.00,541.00 678.00,636.00 678.00,636.00
             678.00,636.00 619.00,636.00 619.00,636.00
             619.00,636.00 619.00,387.00 619.00,387.00 Z
           M 503.00,388.00
           C 503.00,388.00 562.00,388.00 562.00,388.00
             562.00,388.00 562.00,636.00 562.00,636.00
             562.00,636.00 503.00,636.00 503.00,636.00
             503.00,636.00 503.00,388.00 503.00,388.00 Z
           M 190.00,800.00
           C 190.00,800.00 71.00,800.00 71.00,800.00
             71.00,800.00 71.00,896.00 71.00,896.00
             71.00,896.00 190.00,896.00 190.00,896.00
             190.00,896.00 190.00,800.00 190.00,800.00 Z
           M 381.00,800.00
           C 381.00,800.00 262.00,800.00 262.00,800.00
             262.00,800.00 262.00,896.00 262.00,896.00
             262.00,896.00 381.00,896.00 381.00,896.00
             381.00,896.00 381.00,800.00 381.00,800.00 Z
           M 572.00,800.00
           C 572.00,800.00 453.00,800.00 453.00,800.00
             453.00,800.00 453.00,896.00 453.00,896.00
             453.00,896.00 572.00,896.00 572.00,896.00
             572.00,896.00 572.00,800.00 572.00,800.00 Z
           M 763.00,800.00
           C 763.00,800.00 644.00,800.00 644.00,800.00
             644.00,800.00 644.00,896.00 644.00,896.00
             644.00,896.00 763.00,896.00 763.00,896.00
             763.00,896.00 763.00,800.00 763.00,800.00 Z
           M 953.00,800.00
           C 953.00,800.00 834.00,800.00 834.00,800.00
             834.00,800.00 834.00,896.00 834.00,896.00
             834.00,896.00 953.00,896.00 953.00,896.00
             953.00,896.00 953.00,800.00 953.00,800.00 Z" />
</svg>
