<?xml version="1.0" encoding="UTF-8" standalone="no"?>
<!DOCTYPE svg PUBLIC "-//W3C//DTD SVG 20010904//EN"
              "http://www.w3.org/TR/2001/REC-SVG-20010904/DTD/svg10.dtd">

<svg xmlns="http://www.w3.org/2000/svg"
     width="3.62667in" height="1.64333in"
     viewBox="0 0 1088 493">
  <path id="パス #1"
        fill="#dcdce0" stroke="#dcdce0" stroke-width="1"
        d="M 426.02,447.53
           C 436.27,447.53 449.42,444.89 465.45,439.59
             481.49,434.30 498.45,426.04 516.31,414.80
             533.18,404.38 544.09,396.36 549.05,390.73
             551.69,387.76 553.02,385.11 553.02,382.80
             553.02,380.82 552.11,379.00 550.30,377.34
             548.64,375.19 546.82,374.11 544.84,374.11
             543.02,374.11 540.29,375.23 536.64,377.47
             533.00,379.70 527.38,383.62 519.78,389.25
             490.19,409.59 463.89,421.98 440.91,426.45
             435.61,427.45 430.73,427.94 426.27,427.94
             408.08,427.94 398.98,419.51 398.98,402.64
             398.98,388.26 404.44,369.48 415.36,346.33
             431.40,312.43 454.30,276.55 484.06,238.69
             511.19,204.12 539.88,174.36 570.14,149.39
             578.90,142.45 583.28,137.31 583.28,134.00
             583.28,132.19 582.49,130.50 580.92,128.92
             579.36,127.35 577.58,126.56 575.59,126.56
             574.44,126.56 572.45,127.14 569.64,128.30
             566.83,129.45 560.96,133.76 552.03,141.20
             525.57,162.86 499.61,189.15 474.14,220.08
             441.40,260.10 415.94,299.29 397.75,337.66
             385.51,364.28 379.39,386.20 379.39,403.39
             379.56,428.53 392.62,443.08 418.58,447.05
             420.89,447.37 423.37,447.53 426.02,447.53 Z
           M 561.55,389.00
           C 571.96,389.00 587.75,383.30 608.92,371.89
             625.30,362.95 646.55,349.89 672.67,332.69
             688.05,322.77 698.23,315.66 703.19,311.36
             706.49,308.55 708.14,305.57 708.14,302.44
             708.14,300.62 707.64,299.04 706.66,297.72
             705.00,295.73 702.85,294.73 700.20,294.73
             698.88,294.73 697.48,294.98 696.00,295.48
             691.20,297.48 680.11,304.26 662.75,315.83
             608.34,351.88 575.02,369.91 562.80,369.91
             560.31,369.91 558.90,369.25 558.58,367.92
             558.25,366.60 558.08,365.28 558.08,363.95
             558.08,358.98 559.90,352.45 563.53,344.34
             569.32,331.95 577.68,319.46 588.59,306.89
             592.73,301.60 594.80,296.97 594.80,293.00
             594.80,291.51 594.38,289.98 593.55,288.42
             592.72,286.85 591.23,286.06 589.08,286.06
             586.93,286.06 584.29,287.30 581.14,289.78
             567.75,301.02 557.41,313.76 550.14,327.98
             543.36,341.70 539.97,353.94 539.97,364.69
             539.97,377.59 545.09,385.44 555.34,388.25
             557.17,388.75 559.23,389.00 561.55,389.00 Z
           M 607.19,276.64
           C 610.83,276.64 614.97,273.58 619.59,267.45
             622.41,263.32 623.81,259.77 623.81,256.80
             623.81,255.31 623.48,253.98 622.81,252.83
             621.66,250.84 619.75,249.84 617.11,249.84
             616.94,249.84 616.11,249.89 614.62,249.97
             613.14,250.05 610.66,251.83 607.19,255.30
             601.73,260.76 599.00,265.06 599.00,268.20
             599.00,270.18 599.91,272.09 601.73,273.91
             603.39,275.73 605.21,276.64 607.19,276.64 Z
           M 658.20,387.02
           C 661.18,386.68 669.62,378.66 683.52,362.95
             689.30,356.34 695.33,349.73 701.62,343.11
             716.18,327.57 723.95,319.80 724.94,319.80
             724.94,321.29 724.60,325.34 723.94,331.95
             723.45,336.58 723.20,340.79 723.20,344.59
             723.20,344.59 723.20,347.33 723.20,347.33
             724.19,363.86 730.55,372.12 742.30,372.12
             757.18,372.12 777.36,358.98 802.83,332.69
             815.72,319.46 823.66,310.04 826.64,304.42
             827.96,302.10 828.62,300.12 828.62,298.47
             828.62,295.82 827.13,293.84 824.16,292.52
             822.66,291.68 821.09,291.27 819.44,291.27
             819.11,291.27 818.33,291.39 817.08,291.64
             815.84,291.89 813.73,293.38 810.75,296.11
             807.78,298.84 803.65,303.18 798.36,309.12
             784.80,323.84 772.48,335.34 761.41,343.61
             753.62,349.56 748.08,352.53 744.78,352.53
             744.78,352.53 743.78,352.28 743.78,352.28
             742.79,352.12 742.30,349.98 742.30,345.84
             742.30,341.71 742.79,335.59 743.78,327.48
             744.61,322.70 745.03,318.39 745.03,314.58
             745.03,304.50 741.72,298.46 735.11,296.48
             733.95,296.15 732.71,295.98 731.39,295.98
             725.27,295.98 717.33,300.37 707.58,309.12
             705.42,311.28 703.68,312.90 702.36,313.97
             701.04,315.04 700.29,315.58 700.12,315.58
             700.12,315.58 702.86,311.11 702.86,311.11
             711.95,296.56 716.50,287.38 716.50,283.58
             716.50,281.60 715.59,280.03 713.78,278.86
             711.96,277.05 710.22,276.14 708.56,276.14
             708.56,276.14 706.08,276.88 706.08,276.88
             703.77,277.54 696.66,287.14 684.75,305.66
             667.89,332.28 656.81,350.64 651.52,360.72
             647.71,368.00 645.81,373.29 645.81,376.59
             645.81,379.41 646.80,381.64 648.78,383.30
             651.09,385.78 653.41,387.02 655.73,387.02
             655.73,387.02 658.20,387.02 658.20,387.02 Z
           M 719.66,492.19
           C 720.82,492.19 721.98,491.98 723.14,491.58
             724.30,491.16 725.83,489.59 727.73,486.86
             729.63,484.13 732.20,479.67 735.42,473.47
             738.64,467.26 742.98,458.70 748.44,447.78
             757.87,428.94 766.14,412.90 773.25,399.67
             780.36,386.45 784.16,379.83 784.66,379.83
             784.66,379.83 791.84,383.05 791.84,383.05
             800.62,387.18 810.45,389.25 821.36,389.25
             837.90,389.25 856.67,384.54 877.67,375.11
             905.95,362.21 936.55,341.46 969.45,312.84
             975.40,307.72 978.38,303.26 978.38,299.45
             978.38,297.31 977.46,295.37 975.64,293.62
             973.83,291.89 971.93,291.02 969.94,291.02
             968.95,291.02 967.38,291.43 965.22,292.27
             963.07,293.09 958.28,296.64 950.84,302.92
             921.91,327.07 895.78,344.77 872.47,356.02
             852.95,365.60 836.08,370.39 821.86,370.39
             814.25,370.39 807.39,368.98 801.27,366.17
             797.96,364.85 796.31,363.45 796.31,361.97
             796.31,359.65 799.12,353.94 804.75,344.84
             815.16,326.99 827.57,315.91 841.95,311.61
             841.95,311.61 842.94,311.36 842.94,311.36
             849.55,309.21 854.52,308.14 857.83,308.14
             860.97,308.14 862.55,309.13 862.55,311.11
             862.55,311.11 862.30,315.08 862.30,315.08
             862.30,317.23 862.88,319.02 864.03,320.42
             865.19,321.82 866.92,322.52 869.23,322.52
             874.69,322.52 878.25,319.38 879.91,313.09
             880.73,310.45 881.14,307.97 881.14,305.66
             881.14,301.36 879.65,297.71 876.67,294.73
             872.21,291.77 866.43,290.28 859.31,290.28
             854.02,290.28 848.07,291.11 841.45,292.75
             839.80,293.42 838.55,293.75 837.73,293.75
             837.23,293.75 836.98,293.50 836.98,293.00
             836.98,292.51 838.23,290.28 840.72,286.31
             883.71,218.18 916.20,168.57 938.19,137.48
             944.48,128.39 952.25,117.56 961.52,104.98
             961.52,104.98 1020.05,24.62 1020.05,24.62
             1026.00,16.19 1028.98,10.65 1028.98,8.00
             1028.98,6.68 1028.24,5.07 1026.75,3.17
             1025.26,1.27 1023.52,0.31 1021.53,0.31
             1017.89,0.31 1013.43,3.95 1008.14,11.22
             1008.14,11.22 987.06,38.27 987.06,38.27
             935.80,103.75 877.51,189.57 812.19,295.73
             805.74,306.15 800.53,313.18 796.56,316.81
             782.01,330.04 774.40,343.19 773.73,356.25
             773.73,358.24 771.26,363.53 766.30,372.12
             751.08,399.09 735.95,428.36 720.91,459.94
             714.29,473.67 710.98,481.36 710.98,483.02
             710.98,484.66 711.69,486.44 713.09,488.34
             714.50,490.24 716.03,491.44 717.67,491.94
             717.67,491.94 719.66,492.19 719.66,492.19 Z
           M 933.16,406.11
           C 937.62,406.11 942.88,404.95 948.92,402.64
             954.95,400.33 961.19,396.36 967.64,390.73
             980.37,379.65 987.64,366.92 989.47,352.53
             989.47,352.53 989.95,345.34 989.95,345.34
             989.95,345.34 999.88,340.14 999.88,340.14
             1021.71,328.89 1044.45,319.38 1068.09,311.61
             1080.82,307.81 1087.19,303.59 1087.19,298.95
             1087.19,296.81 1085.95,294.58 1083.47,292.27
             1082.31,291.11 1080.24,290.53 1077.27,290.53
             1064.70,290.53 1038.83,299.95 999.64,318.80
             999.64,318.80 983.52,326.25 983.52,326.25
             983.35,326.25 982.93,325.59 982.27,324.27
             978.46,317.15 976.56,311.12 976.56,306.16
             976.56,302.84 977.47,300.16 979.28,298.09
             981.10,296.02 983.59,294.98 986.73,294.98
             988.22,294.98 989.88,295.23 991.69,295.73
             993.51,296.23 995.16,296.48 996.66,296.48
             1001.12,296.48 1003.94,294.66 1005.09,291.02
             1005.09,291.02 1005.59,288.78 1005.59,288.78
             1005.59,285.65 1003.27,282.67 998.64,279.86
             995.49,278.54 991.36,277.88 986.23,277.88
             981.27,277.88 977.14,278.62 973.84,280.11
             963.26,285.89 957.97,294.16 957.97,304.91
             957.97,313.01 960.53,323.02 965.66,334.92
             965.66,334.92 965.91,335.42 965.91,335.42
             965.91,336.41 963.42,338.40 958.45,341.38
             947.87,348.16 939.03,354.86 931.92,361.47
             919.02,373.21 912.56,383.38 912.56,391.97
             912.56,398.43 917.11,402.90 926.20,405.38
             928.53,405.87 930.84,406.11 933.16,406.11 Z
           M 934.39,386.27
           C 939.85,378.66 948.87,370.64 961.44,362.20
             965.41,359.56 967.80,358.23 968.62,358.23
             968.62,358.57 968.38,359.31 967.88,360.47
             967.38,361.62 966.68,363.03 965.77,364.69
             964.86,366.34 963.99,367.75 963.17,368.91
             958.70,374.53 953.33,379.00 947.05,382.30
             942.58,384.78 938.36,386.10 934.39,386.27 Z" />
  <path id="選択範囲 #3"
        fill="#dcdce0" stroke="#dcdce0" stroke-width="1"
        d="M 0.00,0.00
           C 0.00,0.00 26.00,31.00 26.00,31.00
             26.00,31.00 76.40,94.00 76.40,94.00
             76.40,94.00 237.80,296.00 237.80,296.00
             237.80,296.00 319.20,398.00 319.20,398.00
             319.20,398.00 344.80,430.00 344.80,430.00
             344.80,430.00 358.00,448.00 358.00,448.00
             358.00,448.00 332.00,448.00 332.00,448.00
             332.00,448.00 324.29,446.98 324.29,446.98
             324.29,446.98 317.00,439.00 317.00,439.00
             317.00,439.00 305.24,423.00 305.24,423.00
             305.24,423.00 287.20,400.00 287.20,400.00
             287.20,400.00 252.80,357.00 252.80,357.00
             252.80,357.00 70.80,129.00 70.80,129.00
             70.80,129.00 18.40,64.00 18.40,64.00
             18.40,64.00 0.85,41.00 0.85,41.00
             0.85,41.00 0.00,33.00 0.00,33.00
             0.00,33.00 0.00,0.00 0.00,0.00 Z
           M 0.00,78.00
           C 4.92,81.84 8.52,87.15 12.40,92.00
             18.94,100.18 23.98,103.25 24.00,114.00
             24.00,114.00 24.00,177.00 24.00,177.00
             24.00,177.00 24.00,424.00 24.00,424.00
             24.00,424.00 218.00,424.00 218.00,424.00
             218.00,424.00 270.00,424.00 270.00,424.00
             270.00,424.00 277.56,424.99 277.56,424.99
             277.56,424.99 284.00,432.00 284.00,432.00
             284.00,432.00 296.00,448.00 296.00,448.00
             296.00,448.00 0.00,448.00 0.00,448.00
             0.00,448.00 0.00,78.00 0.00,78.00 Z" />
</svg>
