<?xml version="1.0" encoding="UTF-8" standalone="no"?>
<!DOCTYPE svg PUBLIC "-//W3C//DTD SVG 20010904//EN"
              "http://www.w3.org/TR/2001/REC-SVG-20010904/DTD/svg10.dtd">

<svg xmlns="http://www.w3.org/2000/svg"
     width="3.41333in" height="3.41333in"
     viewBox="0 0 1024 1024">
  <path id="選択範囲 #21"
        fill="#454351" stroke="none" stroke-width="1"
        d="M 267.00,4.21
           C 267.00,4.21 327.00,5.00 327.00,5.00
             327.00,5.00 417.00,5.00 417.00,5.00
             417.00,5.00 729.00,6.00 729.00,6.00
             763.11,6.40 797.57,11.87 830.00,22.67
             855.59,31.19 881.02,43.13 903.00,58.86
             922.13,72.55 937.11,85.93 952.25,104.00
             988.88,147.73 1011.12,202.64 1018.72,259.00
             1022.47,286.83 1022.00,313.04 1022.00,341.00
             1022.00,341.00 1022.00,439.00 1022.00,439.00
             1022.00,439.00 1022.00,599.00 1022.00,599.00
             1022.00,599.00 1023.00,614.00 1023.00,614.00
             1023.00,614.00 1023.00,676.00 1023.00,676.00
             1023.00,699.82 1023.20,723.30 1020.83,747.00
             1015.68,798.49 997.53,850.67 969.31,894.00
             956.60,913.51 944.38,926.70 928.00,943.00
             889.82,981.00 832.83,1006.43 780.00,1015.25
             768.12,1017.23 712.00,1020.00 712.00,1020.00
             712.00,1020.00 624.00,1021.00 624.00,1021.00
             624.00,1021.00 457.00,1021.00 457.00,1021.00
             457.00,1021.00 317.00,1022.00 317.00,1022.00
             317.00,1022.00 305.00,1021.09 305.00,1021.09
             305.00,1021.09 260.00,1016.08 260.00,1016.08
             204.39,1006.87 155.30,988.65 111.00,953.00
             95.14,940.23 81.10,925.29 68.89,909.00
             36.80,866.14 19.59,815.37 10.92,763.00
             10.92,763.00 5.91,719.00 5.91,719.00
             5.91,719.00 4.00,687.00 4.00,687.00
             4.00,687.00 5.00,618.00 5.00,618.00
             5.00,618.00 6.00,433.00 6.00,433.00
             6.00,433.00 6.00,346.00 6.00,346.00
             6.00,306.35 4.84,272.31 13.21,233.00
             25.71,174.27 56.88,120.05 102.00,80.28
             124.75,60.24 145.96,46.27 173.00,32.75
             195.95,21.28 220.81,12.48 246.00,7.45
             246.00,7.45 267.00,4.21 267.00,4.21 Z
           M 270.00,45.14
           C 257.25,47.16 247.49,48.86 235.00,52.43
             180.44,68.00 126.42,104.83 93.43,151.00
             69.09,185.05 54.32,224.52 49.28,266.00
             49.28,266.00 47.91,286.00 47.91,286.00
             47.91,286.00 47.00,298.00 47.00,298.00
             47.00,298.00 46.00,449.00 46.00,449.00
             46.00,449.00 46.00,619.00 46.00,619.00
             46.00,619.00 45.00,634.00 45.00,634.00
             45.00,634.00 45.00,686.00 45.00,686.00
             45.00,686.00 46.91,717.00 46.91,717.00
             46.91,717.00 51.59,757.00 51.59,757.00
             58.66,799.17 72.80,844.08 98.15,879.00
             108.56,893.34 120.43,906.96 134.00,918.41
             175.11,953.09 224.38,969.82 277.00,977.13
             277.00,977.13 318.00,981.00 318.00,981.00
             318.00,981.00 375.00,981.00 375.00,981.00
             375.00,981.00 458.00,981.00 458.00,981.00
             458.00,981.00 632.00,980.00 632.00,980.00
             632.00,980.00 711.00,980.00 711.00,980.00
             711.00,980.00 735.00,979.00 735.00,979.00
             743.92,978.99 754.12,977.55 763.00,976.27
             814.03,968.91 860.93,949.37 899.00,913.91
             912.49,901.35 926.31,884.52 936.31,869.00
             960.32,831.72 974.38,788.89 979.72,745.00
             983.56,713.31 982.05,647.89 982.00,613.00
             982.00,613.00 981.00,596.00 981.00,596.00
             981.00,596.00 981.00,472.00 981.00,472.00
             981.00,472.00 981.00,360.00 981.00,360.00
             981.00,360.00 981.00,299.00 981.00,299.00
             981.00,299.00 980.09,287.00 980.09,287.00
             976.08,228.72 954.79,164.29 913.00,122.00
             899.26,108.10 889.48,99.12 873.00,88.34
             854.12,75.99 830.71,65.36 809.00,59.14
             788.73,53.33 768.03,49.45 747.00,47.91
             747.00,47.91 715.00,46.00 715.00,46.00
             715.00,46.00 413.00,46.00 413.00,46.00
             413.00,46.00 336.00,45.14 336.00,45.14
             336.00,45.14 270.00,45.14 270.00,45.14 Z
           M 690.00,90.00
           C 724.12,90.40 758.05,94.03 791.00,103.43
             809.49,108.70 827.68,116.42 844.00,126.58
             859.12,135.99 866.51,142.37 879.00,155.00
             903.46,179.75 917.55,212.70 925.87,246.00
             928.92,258.20 932.98,279.69 933.00,292.00
             933.00,292.00 933.00,369.00 933.00,369.00
             933.00,369.00 934.00,584.00 934.00,584.00
             934.00,584.00 935.00,693.00 935.00,693.00
             935.00,693.00 934.00,713.00 934.00,713.00
             934.00,713.00 930.27,749.00 930.27,749.00
             924.72,787.52 912.85,825.63 889.10,857.00
             881.84,866.59 873.24,875.39 864.00,883.08
             829.82,911.51 786.43,923.96 743.00,929.15
             743.00,929.15 710.00,932.00 710.00,932.00
             710.00,932.00 626.00,932.00 626.00,932.00
             626.00,932.00 573.00,931.00 573.00,931.00
             573.00,931.00 377.00,931.00 377.00,931.00
             377.00,931.00 287.00,931.00 287.00,931.00
             287.00,931.00 262.00,928.72 262.00,928.72
             224.13,923.61 187.03,907.01 159.00,880.91
             148.64,871.26 137.95,858.03 130.42,846.00
             119.28,828.20 112.14,812.02 105.98,792.00
             100.20,773.24 94.03,742.47 94.00,723.00
             94.00,723.00 93.00,703.00 93.00,703.00
             93.00,703.00 93.00,425.00 93.00,425.00
             93.00,425.00 93.00,362.00 93.00,362.00
             93.00,362.00 93.00,321.00 93.00,321.00
             93.00,321.00 93.91,309.00 93.91,309.00
             95.39,287.44 97.62,266.01 103.15,245.00
             110.86,215.73 123.81,186.26 143.44,163.00
             177.04,123.17 223.78,104.14 274.00,95.75
             285.95,93.76 331.00,91.00 331.00,91.00
             331.00,91.00 363.00,91.00 363.00,91.00
             363.00,91.00 458.00,91.00 458.00,91.00
             458.00,91.00 542.00,90.00 542.00,90.00
             542.00,90.00 619.00,90.00 619.00,90.00
             619.00,90.00 690.00,90.00 690.00,90.00 Z
           M 660.00,130.19
           C 660.00,130.19 555.00,131.00 555.00,131.00
             555.00,131.00 457.00,131.00 457.00,131.00
             457.00,131.00 327.00,132.00 327.00,132.00
             280.63,132.07 223.25,144.45 188.00,176.17
             153.40,207.31 140.31,253.19 135.83,298.00
             135.83,298.00 134.00,320.00 134.00,320.00
             134.00,320.00 134.00,457.00 134.00,457.00
             134.00,457.00 134.00,703.00 134.00,703.00
             134.00,703.00 135.00,722.00 135.00,722.00
             135.00,722.00 138.25,750.00 138.25,750.00
             146.20,797.75 168.09,843.02 211.00,868.55
             221.86,875.01 235.80,880.55 248.00,883.85
             259.29,886.90 277.39,889.98 289.00,890.00
             289.00,890.00 514.00,891.00 514.00,891.00
             514.00,891.00 637.00,891.00 637.00,891.00
             637.00,891.00 721.00,890.09 721.00,890.09
             756.45,887.61 795.88,879.71 826.00,859.92
             867.04,832.96 884.54,785.92 890.15,739.00
             890.15,739.00 894.00,692.00 894.00,692.00
             894.00,692.00 894.00,596.00 894.00,596.00
             894.00,596.00 893.00,581.00 893.00,581.00
             893.00,581.00 893.00,381.00 893.00,381.00
             893.00,381.00 892.00,366.00 892.00,366.00
             892.00,366.00 892.00,295.00 892.00,295.00
             891.96,271.04 881.11,233.07 869.69,212.00
             834.79,147.62 760.47,130.74 693.01,129.96
             693.01,129.96 660.00,130.19 660.00,130.19 Z
           M 762.00,169.23
           C 762.00,169.23 781.00,169.23 781.00,169.23
             800.16,169.03 819.46,177.52 832.96,191.04
             868.56,226.69 863.09,292.25 819.00,318.55
             800.31,329.69 788.91,330.24 768.00,330.00
             737.15,329.64 709.76,305.24 700.08,277.00
             695.63,264.03 695.98,257.20 696.00,244.00
             696.02,233.24 699.01,222.63 703.76,213.00
             716.10,187.94 735.17,175.26 762.00,169.23 Z
           M 768.00,210.32
           C 758.13,212.54 749.37,217.51 743.60,226.00
             729.64,246.53 737.82,278.70 762.00,287.30
             768.62,289.66 777.10,289.86 784.00,288.68
             812.08,283.86 824.20,248.44 808.21,226.00
             797.94,211.58 784.71,208.49 768.00,210.32 Z
           M 503.00,237.67
           C 511.48,236.39 519.58,237.34 528.00,237.67
             542.55,238.91 556.66,240.33 571.00,243.20
             665.76,262.15 741.30,329.27 773.69,420.00
             781.29,441.27 786.44,463.44 788.09,486.00
             788.09,486.00 789.00,496.00 789.00,496.00
             789.37,527.95 788.97,549.53 781.11,581.00
             759.30,668.23 693.81,741.13 609.00,771.31
             589.86,778.12 553.02,786.97 533.00,787.00
             533.00,787.00 498.00,787.00 498.00,787.00
             498.00,787.00 488.00,786.08 488.00,786.08
             466.77,784.39 451.29,780.81 431.00,774.72
             407.89,767.78 385.35,756.96 365.00,744.05
             302.29,704.25 259.78,640.50 245.00,568.00
             239.62,541.58 239.69,521.62 240.00,495.00
             240.00,495.00 240.92,485.00 240.92,485.00
             243.19,456.64 251.29,425.98 262.86,400.00
             294.73,328.41 355.40,274.19 430.00,250.34
             447.56,244.73 465.69,241.12 484.00,239.16
             484.00,239.16 503.00,237.67 503.00,237.67 Z
           M 505.00,278.28
           C 505.00,278.28 485.00,280.28 485.00,280.28
             469.38,282.18 453.96,285.90 439.00,290.74
             385.55,308.05 336.02,349.71 309.31,399.00
             260.41,489.20 274.88,604.85 348.01,677.99
             373.32,703.29 405.10,722.69 439.00,734.00
             461.39,741.47 477.55,744.37 501.00,746.09
             501.00,746.09 511.00,747.00 511.00,747.00
             543.55,747.38 585.84,738.79 615.00,724.25
             632.03,715.75 652.70,703.15 667.00,690.71
             713.55,650.22 741.05,596.14 747.17,535.00
             747.17,535.00 749.00,509.00 749.00,509.00
             749.00,509.00 747.17,489.00 747.17,489.00
             736.69,384.17 658.35,299.07 554.00,281.92
             540.95,279.77 517.83,277.09 505.00,278.28 Z
           M 495.00,328.21
           C 495.00,328.21 527.00,328.21 527.00,328.21
             545.93,328.03 571.61,335.14 589.00,342.58
             609.34,351.27 628.09,363.65 644.00,379.04
             671.27,405.43 690.12,440.56 696.41,478.00
             697.69,485.60 698.99,493.29 699.00,501.00
             699.00,501.00 699.00,525.00 699.00,525.00
             698.75,546.26 689.43,578.10 679.74,597.00
             663.93,627.84 638.76,653.90 609.00,671.55
             585.64,685.40 552.31,695.96 525.00,696.00
             525.00,696.00 500.00,696.00 500.00,696.00
             486.50,695.84 464.86,690.24 452.00,685.69
             391.61,664.32 349.19,615.14 334.89,553.00
             332.76,543.76 331.05,531.45 331.00,522.00
             331.00,522.00 330.32,510.00 330.32,510.00
             330.32,510.00 331.00,502.00 331.00,502.00
             331.72,440.06 370.53,380.70 424.00,350.86
             449.15,336.83 467.07,332.64 495.00,328.21 Z
           M 499.00,369.14
           C 470.93,373.57 449.88,380.66 427.00,398.23
             358.20,451.08 353.16,552.43 413.09,613.96
             424.13,625.30 440.59,636.09 455.00,642.69
             470.53,649.81 490.92,654.78 508.00,655.21
             508.00,655.21 517.00,655.21 517.00,655.21
             535.61,654.79 553.76,651.94 571.00,644.57
             610.30,627.77 640.90,594.13 652.71,553.00
             655.59,542.97 657.98,530.43 658.00,520.00
             658.04,493.70 657.19,478.83 646.57,454.00
             629.08,413.09 591.23,382.19 548.00,372.35
             539.90,370.51 533.39,369.01 525.00,369.14
             525.00,369.14 499.00,369.14 499.00,369.14 Z" />
</svg>
