<?xml version="1.0" encoding="UTF-8" standalone="no"?>
<!DOCTYPE svg PUBLIC "-//W3C//DTD SVG 20010904//EN"
              "http://www.w3.org/TR/2001/REC-SVG-20010904/DTD/svg10.dtd">

<svg xmlns="http://www.w3.org/2000/svg"
     width="2.36333in" height="1.64333in"
     viewBox="0 0 709 493">
  <path id="パス #1"
        fill="#dcdce0" stroke="#dcdce0" stroke-width="1"
        d="M 47.02,447.53
           C 57.27,447.53 70.42,444.89 86.45,439.59
             102.49,434.30 119.45,426.04 137.31,414.80
             154.18,404.38 165.09,396.36 170.05,390.73
             172.69,387.76 174.02,385.11 174.02,382.80
             174.02,380.82 173.11,379.00 171.30,377.34
             169.64,375.19 167.82,374.11 165.84,374.11
             164.02,374.11 161.29,375.23 157.64,377.47
             154.00,379.70 148.38,383.62 140.78,389.25
             111.19,409.59 84.89,421.98 61.91,426.45
             56.61,427.45 51.73,427.94 47.27,427.94
             29.08,427.94 19.98,419.51 19.98,402.64
             19.98,388.26 25.44,369.48 36.36,346.33
             52.40,312.43 75.30,276.55 105.06,238.69
             132.19,204.12 160.88,174.36 191.14,149.39
             199.90,142.45 204.28,137.31 204.28,134.00
             204.28,132.19 203.49,130.50 201.92,128.92
             200.36,127.35 198.58,126.56 196.59,126.56
             195.44,126.56 193.45,127.14 190.64,128.30
             187.83,129.45 181.96,133.76 173.03,141.20
             146.57,162.86 120.61,189.15 95.14,220.08
             62.40,260.10 36.94,299.29 18.75,337.66
             6.51,364.28 0.39,386.20 0.39,403.39
             0.56,428.53 13.62,443.08 39.58,447.05
             41.89,447.37 44.37,447.53 47.02,447.53 Z
           M 182.55,389.00
           C 192.96,389.00 208.75,383.30 229.92,371.89
             246.30,362.95 267.55,349.89 293.67,332.69
             309.05,322.77 319.23,315.66 324.19,311.36
             327.49,308.55 329.14,305.57 329.14,302.44
             329.14,300.62 328.64,299.04 327.66,297.72
             326.00,295.73 323.85,294.73 321.20,294.73
             319.88,294.73 318.48,294.98 317.00,295.48
             312.20,297.48 301.11,304.26 283.75,315.83
             229.34,351.88 196.02,369.91 183.80,369.91
             181.31,369.91 179.90,369.25 179.58,367.92
             179.25,366.60 179.08,365.28 179.08,363.95
             179.08,358.98 180.90,352.45 184.53,344.34
             190.32,331.95 198.68,319.46 209.59,306.89
             213.73,301.60 215.80,296.97 215.80,293.00
             215.80,291.51 215.38,289.98 214.55,288.42
             213.72,286.85 212.23,286.06 210.08,286.06
             207.93,286.06 205.29,287.30 202.14,289.78
             188.75,301.02 178.41,313.76 171.14,327.98
             164.36,341.70 160.97,353.94 160.97,364.69
             160.97,377.59 166.09,385.44 176.34,388.25
             178.17,388.75 180.23,389.00 182.55,389.00 Z
           M 228.19,276.64
           C 231.83,276.64 235.97,273.58 240.59,267.45
             243.41,263.32 244.81,259.77 244.81,256.80
             244.81,255.31 244.48,253.98 243.81,252.83
             242.66,250.84 240.75,249.84 238.11,249.84
             237.94,249.84 237.11,249.89 235.62,249.97
             234.14,250.05 231.66,251.83 228.19,255.30
             222.73,260.76 220.00,265.06 220.00,268.20
             220.00,270.18 220.91,272.09 222.73,273.91
             224.39,275.73 226.21,276.64 228.19,276.64 Z
           M 279.20,387.02
           C 282.18,386.68 290.62,378.66 304.52,362.95
             310.30,356.34 316.33,349.73 322.62,343.11
             337.18,327.57 344.95,319.80 345.94,319.80
             345.94,321.29 345.60,325.34 344.94,331.95
             344.45,336.58 344.20,340.79 344.20,344.59
             344.20,344.59 344.20,347.33 344.20,347.33
             345.19,363.86 351.55,372.12 363.30,372.12
             378.18,372.12 398.36,358.98 423.83,332.69
             436.72,319.46 444.66,310.04 447.64,304.42
             448.96,302.10 449.62,300.12 449.62,298.47
             449.62,295.82 448.13,293.84 445.16,292.52
             443.66,291.68 442.09,291.27 440.44,291.27
             440.11,291.27 439.33,291.39 438.08,291.64
             436.84,291.89 434.73,293.38 431.75,296.11
             428.78,298.84 424.65,303.18 419.36,309.12
             405.80,323.84 393.48,335.34 382.41,343.61
             374.62,349.56 369.08,352.53 365.78,352.53
             365.78,352.53 364.78,352.28 364.78,352.28
             363.79,352.12 363.30,349.98 363.30,345.84
             363.30,341.71 363.79,335.59 364.78,327.48
             365.61,322.70 366.03,318.39 366.03,314.58
             366.03,304.50 362.72,298.46 356.11,296.48
             354.95,296.15 353.71,295.98 352.39,295.98
             346.27,295.98 338.33,300.37 328.58,309.12
             326.42,311.28 324.68,312.90 323.36,313.97
             322.04,315.04 321.29,315.58 321.12,315.58
             321.12,315.58 323.86,311.11 323.86,311.11
             332.95,296.56 337.50,287.38 337.50,283.58
             337.50,281.60 336.59,280.03 334.78,278.86
             332.96,277.05 331.22,276.14 329.56,276.14
             329.56,276.14 327.08,276.88 327.08,276.88
             324.77,277.54 317.66,287.14 305.75,305.66
             288.89,332.28 277.81,350.64 272.52,360.72
             268.71,368.00 266.81,373.29 266.81,376.59
             266.81,379.41 267.80,381.64 269.78,383.30
             272.09,385.78 274.41,387.02 276.73,387.02
             276.73,387.02 279.20,387.02 279.20,387.02 Z
           M 340.66,492.19
           C 341.82,492.19 342.98,491.98 344.14,491.58
             345.30,491.16 346.83,489.59 348.73,486.86
             350.63,484.13 353.20,479.67 356.42,473.47
             359.64,467.26 363.98,458.70 369.44,447.78
             378.87,428.94 387.14,412.90 394.25,399.67
             401.36,386.45 405.16,379.83 405.66,379.83
             405.66,379.83 412.84,383.05 412.84,383.05
             421.62,387.18 431.45,389.25 442.36,389.25
             458.90,389.25 477.67,384.54 498.67,375.11
             526.95,362.21 557.55,341.46 590.45,312.84
             596.40,307.72 599.38,303.26 599.38,299.45
             599.38,297.31 598.46,295.37 596.64,293.62
             594.83,291.89 592.93,291.02 590.94,291.02
             589.95,291.02 588.38,291.43 586.22,292.27
             584.07,293.09 579.28,296.64 571.84,302.92
             542.91,327.07 516.78,344.77 493.47,356.02
             473.95,365.60 457.08,370.39 442.86,370.39
             435.25,370.39 428.39,368.98 422.27,366.17
             418.96,364.85 417.31,363.45 417.31,361.97
             417.31,359.65 420.12,353.94 425.75,344.84
             436.16,326.99 448.57,315.91 462.95,311.61
             462.95,311.61 463.94,311.36 463.94,311.36
             470.55,309.21 475.52,308.14 478.83,308.14
             481.97,308.14 483.55,309.13 483.55,311.11
             483.55,311.11 483.30,315.08 483.30,315.08
             483.30,317.23 483.88,319.02 485.03,320.42
             486.19,321.82 487.92,322.52 490.23,322.52
             495.69,322.52 499.25,319.38 500.91,313.09
             501.73,310.45 502.14,307.97 502.14,305.66
             502.14,301.36 500.65,297.71 497.67,294.73
             493.21,291.77 487.43,290.28 480.31,290.28
             475.02,290.28 469.07,291.11 462.45,292.75
             460.80,293.42 459.55,293.75 458.73,293.75
             458.23,293.75 457.98,293.50 457.98,293.00
             457.98,292.51 459.23,290.28 461.72,286.31
             504.71,218.18 537.20,168.57 559.19,137.48
             565.48,128.39 573.25,117.56 582.52,104.98
             582.52,104.98 641.05,24.62 641.05,24.62
             647.00,16.19 649.98,10.65 649.98,8.00
             649.98,6.68 649.24,5.07 647.75,3.17
             646.26,1.27 644.52,0.31 642.53,0.31
             638.89,0.31 634.43,3.95 629.14,11.22
             629.14,11.22 608.06,38.27 608.06,38.27
             556.80,103.75 498.51,189.57 433.19,295.73
             426.74,306.15 421.53,313.18 417.56,316.81
             403.01,330.04 395.40,343.19 394.73,356.25
             394.73,358.24 392.26,363.53 387.30,372.12
             372.08,399.09 356.95,428.36 341.91,459.94
             335.29,473.67 331.98,481.36 331.98,483.02
             331.98,484.66 332.69,486.44 334.09,488.34
             335.50,490.24 337.03,491.44 338.67,491.94
             338.67,491.94 340.66,492.19 340.66,492.19 Z
           M 554.16,406.11
           C 558.62,406.11 563.88,404.95 569.92,402.64
             575.95,400.33 582.19,396.36 588.64,390.73
             601.37,379.65 608.64,366.92 610.47,352.53
             610.47,352.53 610.95,345.34 610.95,345.34
             610.95,345.34 620.88,340.14 620.88,340.14
             642.71,328.89 665.45,319.38 689.09,311.61
             701.82,307.81 708.19,303.59 708.19,298.95
             708.19,296.81 706.95,294.58 704.47,292.27
             703.31,291.11 701.24,290.53 698.27,290.53
             685.70,290.53 659.83,299.95 620.64,318.80
             620.64,318.80 604.52,326.25 604.52,326.25
             604.35,326.25 603.93,325.59 603.27,324.27
             599.46,317.15 597.56,311.12 597.56,306.16
             597.56,302.84 598.47,300.16 600.28,298.09
             602.10,296.02 604.59,294.98 607.73,294.98
             609.22,294.98 610.88,295.23 612.69,295.73
             614.51,296.23 616.16,296.48 617.66,296.48
             622.12,296.48 624.94,294.66 626.09,291.02
             626.09,291.02 626.59,288.78 626.59,288.78
             626.59,285.65 624.27,282.67 619.64,279.86
             616.49,278.54 612.36,277.88 607.23,277.88
             602.27,277.88 598.14,278.62 594.84,280.11
             584.26,285.89 578.97,294.16 578.97,304.91
             578.97,313.01 581.53,323.02 586.66,334.92
             586.66,334.92 586.91,335.42 586.91,335.42
             586.91,336.41 584.42,338.40 579.45,341.38
             568.87,348.16 560.03,354.86 552.92,361.47
             540.02,373.21 533.56,383.38 533.56,391.97
             533.56,398.43 538.11,402.90 547.20,405.38
             549.53,405.87 551.84,406.11 554.16,406.11 Z
           M 555.39,386.27
           C 560.85,378.66 569.87,370.64 582.44,362.20
             586.41,359.56 588.80,358.23 589.62,358.23
             589.62,358.57 589.38,359.31 588.88,360.47
             588.38,361.62 587.68,363.03 586.77,364.69
             585.86,366.34 584.99,367.75 584.17,368.91
             579.70,374.53 574.33,379.00 568.05,382.30
             563.58,384.78 559.36,386.10 555.39,386.27 Z" />
</svg>
