<?xml version="1.0" encoding="UTF-8" standalone="no"?>
<!DOCTYPE svg PUBLIC "-//W3C//DTD SVG 20010904//EN"
              "http://www.w3.org/TR/2001/REC-SVG-20010904/DTD/svg10.dtd">

<svg xmlns="http://www.w3.org/2000/svg"
     width="3.41333in" height="3.41333in"
     viewBox="0 0 1024 1024">
  <path id="選択範囲 #19"
        fill="#454351" stroke="none" stroke-width="1"
        d="M 605.00,187.00
           C 599.99,171.96 597.99,161.75 596.91,146.00
             596.91,146.00 596.08,138.00 596.08,138.00
             596.08,138.00 596.91,130.00 596.91,130.00
             598.73,103.61 606.08,79.67 621.74,58.00
             640.63,31.87 666.91,14.58 698.00,6.63
             705.87,4.62 713.86,3.01 722.00,3.00
             722.00,3.00 743.00,3.00 743.00,3.00
             771.95,3.34 807.76,20.84 827.96,41.04
             880.06,93.14 881.32,184.72 827.00,235.91
             804.68,256.94 771.07,272.95 740.00,273.00
             740.00,273.00 722.00,273.00 722.00,273.00
             708.94,272.98 696.28,269.09 684.00,265.00
             688.82,275.22 688.13,290.75 688.00,302.00
             687.71,326.52 675.59,351.75 659.71,370.00
             659.71,370.00 637.00,393.00 637.00,393.00
             637.00,393.00 594.00,436.00 594.00,436.00
             598.54,434.08 606.43,430.49 611.00,429.52
             611.00,429.52 643.00,427.74 643.00,427.74
             643.00,427.74 664.00,429.46 664.00,429.46
             671.55,430.83 693.41,440.65 700.00,444.81
             712.06,452.43 728.76,470.80 738.08,482.00
             763.44,512.50 786.96,555.88 798.28,594.00
             798.28,594.00 803.65,617.00 803.65,617.00
             806.82,631.01 811.98,652.02 812.00,666.00
             812.00,666.00 812.00,717.00 812.00,717.00
             811.98,727.84 809.11,738.43 807.00,749.00
             802.14,773.32 796.03,795.10 786.42,818.00
             775.06,845.09 760.96,871.11 742.39,894.00
             724.04,916.61 705.98,933.86 683.00,951.65
             683.00,951.65 671.00,960.91 671.00,960.91
             671.00,960.91 656.00,969.80 656.00,969.80
             656.00,969.80 628.00,985.74 628.00,985.74
             614.19,992.43 605.25,995.29 591.00,1000.00
             591.00,1000.00 564.00,1008.53 564.00,1008.53
             564.00,1008.53 543.00,1012.42 543.00,1012.42
             516.46,1017.21 502.94,1018.31 476.00,1018.00
             476.00,1018.00 466.00,1017.09 466.00,1017.09
             446.64,1015.73 426.95,1013.22 408.00,1008.76
             408.00,1008.76 358.00,992.14 358.00,992.14
             343.87,986.31 334.08,980.48 321.00,973.00
             321.00,973.00 301.00,961.48 301.00,961.48
             252.15,929.08 210.55,878.59 186.86,825.00
             186.86,825.00 179.58,806.00 179.58,806.00
             170.93,782.88 170.72,779.38 165.35,756.00
             162.85,745.12 160.02,734.24 160.00,723.00
             160.00,723.00 160.00,664.00 160.00,664.00
             160.03,644.02 165.67,624.14 170.85,605.00
             170.85,605.00 182.06,568.00 182.06,568.00
             182.06,568.00 187.69,556.00 187.69,556.00
             197.20,535.29 207.12,516.62 220.43,498.00
             237.46,474.16 257.43,455.57 278.00,435.00
             278.00,435.00 356.00,357.00 356.00,357.00
             356.00,357.00 477.00,236.00 477.00,236.00
             493.17,219.83 503.94,207.31 524.00,195.45
             536.58,188.01 562.33,182.08 577.00,182.08
             584.59,182.08 597.85,184.37 605.00,187.00 Z
           M 719.00,44.29
           C 703.24,46.89 689.07,52.04 676.00,61.43
             667.30,67.67 658.49,76.98 652.70,86.00
             626.54,126.69 634.67,182.13 673.00,212.33
             688.26,224.35 707.69,231.25 727.00,232.26
             727.00,232.26 735.00,232.26 735.00,232.26
             746.50,231.56 748.50,231.85 760.00,228.41
             770.01,225.41 781.69,219.42 790.00,213.10
             835.26,178.68 838.66,110.94 799.00,71.00
             790.04,61.98 779.79,55.23 768.00,50.45
             752.47,44.16 735.60,42.72 719.00,44.29 Z
           M 575.00,223.32
           C 566.92,224.38 554.18,226.40 547.00,229.99
             530.22,238.38 507.85,263.15 494.00,277.00
             494.00,277.00 436.00,335.00 436.00,335.00
             436.00,335.00 397.83,374.00 397.83,374.00
             397.83,374.00 366.00,406.00 366.00,406.00
             366.00,406.00 305.00,467.00 305.00,467.00
             305.00,467.00 269.29,503.00 269.29,503.00
             251.63,523.13 237.83,545.74 226.69,570.00
             226.69,570.00 219.81,585.00 219.81,585.00
             219.81,585.00 210.58,616.00 210.58,616.00
             205.04,635.92 200.03,656.17 200.00,677.00
             200.00,677.00 200.00,709.00 200.00,709.00
             200.02,724.94 203.82,739.60 207.35,755.00
             207.35,755.00 212.04,775.00 212.04,775.00
             212.04,775.00 217.58,790.00 217.58,790.00
             231.28,826.62 245.90,851.48 271.85,881.00
             271.85,881.00 281.17,891.83 281.17,891.83
             290.69,901.37 312.73,919.83 324.00,927.14
             324.00,927.14 346.00,939.85 346.00,939.85
             346.00,939.85 367.00,951.14 367.00,951.14
             367.00,951.14 398.00,962.34 398.00,962.34
             398.00,962.34 417.00,968.52 417.00,968.52
             429.91,971.83 463.84,976.84 477.00,977.00
             501.95,977.29 513.48,976.20 538.00,971.61
             538.00,971.61 554.00,968.52 554.00,968.52
             554.00,968.52 567.00,964.42 567.00,964.42
             567.00,964.42 591.00,956.94 591.00,956.94
             622.02,945.27 653.40,924.13 678.00,902.16
             693.06,888.71 709.57,870.72 720.97,854.00
             720.97,854.00 732.28,835.00 732.28,835.00
             748.00,807.36 757.76,780.94 764.88,750.00
             768.08,736.11 771.98,717.08 772.00,703.00
             772.00,703.00 772.00,678.00 772.00,678.00
             771.82,663.10 768.29,648.50 765.21,634.00
             765.21,634.00 756.97,600.00 756.97,600.00
             747.79,571.15 727.40,534.44 708.39,511.00
             691.81,490.56 672.38,469.13 644.00,469.00
             636.38,468.96 625.09,468.44 618.00,470.62
             590.32,479.12 569.05,503.48 569.00,533.00
             568.98,544.47 568.21,555.13 572.88,566.00
             579.49,581.41 590.02,589.59 599.79,602.00
             609.89,614.82 618.63,631.34 623.28,647.00
             625.31,653.85 626.38,660.95 627.42,668.00
             631.18,693.36 631.18,702.76 624.87,728.00
             624.87,728.00 620.54,744.00 620.54,744.00
             617.44,752.09 612.40,760.74 607.66,768.00
             603.13,774.94 598.38,781.83 592.83,788.00
             578.33,804.12 554.46,820.12 534.00,827.56
             512.58,835.36 492.32,834.26 470.00,834.00
             463.14,833.92 455.70,832.17 449.00,830.65
             405.30,820.71 367.20,785.42 350.93,744.00
             350.93,744.00 345.35,722.00 345.35,722.00
             343.45,713.73 341.04,705.54 341.00,697.00
             341.00,697.00 341.00,683.00 341.00,683.00
             341.25,661.62 351.94,629.41 364.21,612.00
             368.88,605.37 383.76,590.25 390.00,584.00
             390.00,584.00 415.00,558.00 415.00,558.00
             415.00,558.00 439.96,533.00 439.96,533.00
             439.96,533.00 450.00,522.00 450.00,522.00
             450.00,522.00 571.00,401.00 571.00,401.00
             571.00,401.00 611.00,361.00 611.00,361.00
             625.72,346.28 639.04,333.62 645.23,313.00
             647.56,305.25 647.01,297.98 647.00,290.00
             646.99,280.77 645.10,276.41 641.58,268.00
             637.29,257.77 632.92,250.12 624.71,242.32
             613.08,231.27 591.09,222.97 575.00,223.32 Z
           M 535.00,495.00
           C 535.00,495.00 534.00,495.00 534.00,495.00
             534.00,495.00 535.00,496.00 535.00,496.00
             535.00,496.00 535.00,495.00 535.00,495.00 Z
           M 534.00,496.00
           C 525.91,501.79 519.65,509.77 512.91,517.00
             512.91,517.00 486.00,544.00 486.00,544.00
             486.00,544.00 449.01,581.00 449.01,581.00
             449.01,581.00 433.00,598.00 433.00,598.00
             433.00,598.00 398.04,635.00 398.04,635.00
             389.41,647.22 382.18,670.00 382.00,685.00
             381.74,707.60 387.61,731.01 400.10,750.00
             415.53,773.47 446.40,792.96 475.00,793.00
             475.00,793.00 499.00,793.00 499.00,793.00
             520.07,792.75 545.29,778.42 559.83,763.83
             563.04,760.62 568.02,753.87 570.66,750.00
             581.01,734.79 584.12,725.97 587.39,708.00
             590.40,691.40 587.94,667.81 581.94,652.00
             579.73,646.20 574.76,637.15 571.25,632.00
             565.11,622.97 558.93,617.88 552.46,610.00
             547.08,603.43 539.87,591.77 536.31,584.00
             527.16,564.03 527.97,550.07 528.00,529.00
             528.02,515.73 532.17,507.92 534.00,496.00 Z" />
</svg>
