<?xml version="1.0" encoding="UTF-8" standalone="no"?>
<!DOCTYPE svg PUBLIC "-//W3C//DTD SVG 20010904//EN"
              "http://www.w3.org/TR/2001/REC-SVG-20010904/DTD/svg10.dtd">

<svg xmlns="http://www.w3.org/2000/svg"
     width="3.33333in" height="3.33333in"
     viewBox="0 0 1000 1000">
  <path id="選択範囲"
        fill="#454351" stroke="none" stroke-width="1"
        d="M 369.00,88.14
           C 369.00,88.14 377.00,88.14 377.00,88.14
             377.00,88.14 398.00,88.14 398.00,88.14
             423.50,88.04 451.89,101.49 469.96,119.09
             477.82,126.74 489.37,143.19 494.69,153.00
             510.87,182.85 513.94,211.40 538.43,240.00
             549.46,252.88 563.36,263.79 581.00,264.00
             581.00,264.00 594.00,264.00 594.00,264.00
             617.22,263.72 651.65,245.48 672.00,234.30
             707.31,214.92 740.73,192.42 777.00,174.74
             800.40,163.34 826.61,153.30 853.00,153.00
             859.73,152.93 872.48,154.31 879.00,155.90
             938.47,170.35 965.48,238.44 978.87,292.00
             978.87,292.00 986.00,322.00 986.00,322.00
             986.00,322.00 993.27,363.00 993.27,363.00
             993.27,363.00 999.00,421.00 999.00,421.00
             999.00,421.00 999.00,490.00 999.00,490.00
             999.00,490.00 994.72,535.00 994.72,535.00
             982.57,620.65 951.93,706.19 895.56,773.00
             895.56,773.00 871.00,799.00 871.00,799.00
             871.00,799.00 853.00,816.71 853.00,816.71
             842.84,825.62 822.43,841.09 811.00,848.19
             811.00,848.19 782.00,865.69 782.00,865.69
             753.29,881.22 715.65,895.71 683.00,898.96
             683.00,898.96 674.00,898.96 674.00,898.96
             674.00,898.96 663.00,900.00 663.00,900.00
             663.00,900.00 659.00,900.00 659.00,900.00
             659.00,900.00 649.00,899.09 649.00,899.09
             629.42,897.74 617.11,894.76 599.00,887.00
             587.67,882.14 578.31,875.58 569.00,867.57
             559.93,859.77 548.77,844.75 543.26,834.00
             531.02,810.12 530.96,793.79 531.00,768.00
             531.00,768.00 533.00,735.00 533.00,735.00
             533.00,735.00 533.00,712.00 533.00,712.00
             533.00,712.00 531.15,692.00 531.15,692.00
             527.06,657.75 515.27,614.96 477.00,605.37
             471.68,604.04 467.53,603.07 462.00,603.00
             462.00,603.00 450.00,603.00 450.00,603.00
             424.37,603.04 392.13,616.69 369.00,627.31
             352.43,634.92 327.23,649.24 312.00,659.33
             312.00,659.33 272.00,684.58 272.00,684.58
             258.58,692.89 244.41,700.44 230.00,706.86
             203.86,718.51 183.45,727.40 155.00,733.00
             147.11,734.55 139.05,735.99 131.00,736.00
             131.00,736.00 107.00,736.00 107.00,736.00
             91.73,735.82 70.02,728.66 57.00,720.80
             48.39,715.60 43.05,711.20 36.01,704.00
             25.79,693.54 21.07,684.84 14.76,672.00
             6.80,655.83 1.03,631.04 1.00,613.00
             1.00,613.00 1.00,606.00 1.00,606.00
             1.00,606.00 0.96,587.00 0.96,587.00
             0.96,587.00 0.96,571.00 0.96,571.00
             1.02,558.15 6.38,530.00 9.63,517.00
             16.07,491.21 23.82,465.97 32.95,441.00
             65.08,353.15 122.94,261.06 189.00,195.00
             231.25,152.75 285.51,109.93 344.00,93.43
             344.00,93.43 369.00,88.14 369.00,88.14 Z
           M 374.00,129.14
           C 319.49,137.61 267.50,176.42 229.00,213.99
             229.00,213.99 220.09,222.09 220.09,222.09
             220.09,222.09 212.96,230.00 212.96,230.00
             212.96,230.00 201.17,242.00 201.17,242.00
             139.01,310.70 84.57,403.63 58.86,493.00
             58.86,493.00 49.00,529.00 49.00,529.00
             46.31,541.58 42.02,561.45 41.96,574.00
             41.96,574.00 41.96,585.00 41.96,585.00
             41.65,588.87 40.85,590.71 41.09,595.00
             41.09,595.00 42.00,607.00 42.00,607.00
             42.04,633.90 51.20,666.20 74.00,682.57
             79.97,686.86 83.14,688.45 90.00,690.95
             97.50,693.67 104.02,694.99 112.00,695.00
             112.00,695.00 130.00,695.00 130.00,695.00
             155.58,694.70 194.12,678.69 217.00,667.25
             217.00,667.25 239.00,656.14 239.00,656.14
             239.00,656.14 303.00,616.20 303.00,616.20
             325.46,602.57 348.78,590.73 373.00,580.58
             392.42,572.43 424.04,562.25 445.00,562.00
             464.94,561.77 481.01,561.76 500.00,569.45
             511.82,574.24 522.97,582.07 532.00,591.00
             560.19,618.91 569.19,656.80 572.96,695.00
             572.96,695.00 572.96,704.00 572.96,704.00
             572.96,704.00 574.00,714.00 574.00,714.00
             574.00,714.00 574.00,735.00 574.00,735.00
             574.00,735.00 573.00,751.00 573.00,751.00
             573.00,751.00 572.00,768.00 572.00,768.00
             572.00,768.00 572.00,783.00 572.00,783.00
             572.02,798.64 577.38,813.70 587.01,826.00
             605.71,849.86 633.40,859.34 663.00,859.00
             663.00,859.00 673.00,858.09 673.00,858.09
             710.57,855.51 745.06,839.96 777.00,820.80
             793.61,810.83 815.94,795.01 830.00,781.91
             891.58,724.56 928.42,652.53 946.42,571.00
             946.42,571.00 953.72,533.00 953.72,533.00
             953.72,533.00 958.00,489.00 958.00,489.00
             958.00,489.00 958.00,422.00 958.00,422.00
             958.00,422.00 952.27,367.00 952.27,367.00
             946.88,329.62 936.61,285.58 921.58,251.00
             911.70,228.29 895.37,202.82 870.00,196.16
             839.66,188.19 801.90,206.94 776.00,221.58
             739.67,242.11 704.52,264.97 667.00,283.26
             647.60,292.71 619.80,304.74 598.00,305.00
             583.11,305.17 571.59,305.71 557.00,301.57
             528.55,293.51 503.74,267.00 489.43,242.00
             484.27,233.00 478.53,220.65 474.60,211.00
             461.43,178.64 451.06,144.69 414.00,132.33
             406.21,129.74 404.29,129.01 396.00,129.14
             396.00,129.14 374.00,129.14 374.00,129.14 Z" />
</svg>
