<?xml version="1.0" encoding="UTF-8" standalone="no"?>
<!DOCTYPE svg PUBLIC "-//W3C//DTD SVG 20010904//EN"
              "http://www.w3.org/TR/2001/REC-SVG-20010904/DTD/svg10.dtd">

<svg xmlns="http://www.w3.org/2000/svg"
     width="3.41333in" height="3.41333in"
     viewBox="0 0 1024 1024">
  <path id="選択範囲 #24"
        fill="#454351" stroke="none" stroke-width="1"
        d="M 3.00,15.00
           C 3.00,15.00 39.00,15.00 39.00,15.00
             39.00,15.00 135.00,14.00 135.00,14.00
             135.00,14.00 229.00,13.00 229.00,13.00
             229.00,13.00 324.00,12.00 324.00,12.00
             324.00,12.00 418.00,11.00 418.00,11.00
             418.00,11.00 512.00,10.00 512.00,10.00
             512.00,10.00 607.00,9.00 607.00,9.00
             607.00,9.00 645.00,9.00 645.00,9.00
             645.00,9.00 681.00,10.00 681.00,10.00
             681.00,10.00 695.00,10.91 695.00,10.91
             695.00,10.91 734.00,14.72 734.00,14.72
             800.57,23.40 866.92,44.43 917.00,91.09
             974.70,144.84 1000.62,220.96 1012.42,297.00
             1012.42,297.00 1019.09,358.00 1019.09,358.00
             1019.09,358.00 1021.00,388.00 1021.00,388.00
             1021.00,388.00 1021.00,1017.00 1021.00,1017.00
             1021.00,1017.00 711.00,1017.00 711.00,1017.00
             711.00,1017.00 712.00,459.00 712.00,459.00
             712.00,459.00 710.09,426.00 710.09,426.00
             708.30,399.90 705.97,371.33 695.57,347.00
             691.05,336.42 685.15,326.22 676.96,318.04
             651.84,292.91 602.21,286.40 568.00,286.00
             568.00,286.00 553.00,285.00 553.00,285.00
             553.00,285.00 514.00,285.00 514.00,285.00
             514.00,285.00 478.00,286.00 478.00,286.00
             478.00,286.00 421.00,287.00 421.00,287.00
             421.00,287.00 363.00,288.00 363.00,288.00
             363.00,288.00 312.00,289.00 312.00,289.00
             312.00,289.00 312.00,1017.00 312.00,1017.00
             312.00,1017.00 3.00,1017.00 3.00,1017.00
             3.00,1017.00 3.00,15.00 3.00,15.00 Z
           M 980.00,976.00
           C 980.00,976.00 980.00,389.00 980.00,389.00
             980.00,389.00 978.09,360.00 978.09,360.00
             978.09,360.00 971.59,302.00 971.59,302.00
             962.39,244.80 945.03,186.19 907.25,141.00
             907.25,141.00 893.00,125.09 893.00,125.09
             876.64,109.67 858.12,96.43 838.00,86.37
             784.80,59.77 712.06,50.09 653.00,50.00
             653.00,50.00 636.00,49.00 636.00,49.00
             636.00,49.00 615.00,49.00 615.00,49.00
             615.00,49.00 520.00,50.00 520.00,50.00
             520.00,50.00 426.00,51.00 426.00,51.00
             426.00,51.00 332.00,52.00 332.00,52.00
             332.00,52.00 240.00,53.00 240.00,53.00
             240.00,53.00 143.00,54.00 143.00,54.00
             143.00,54.00 44.00,55.00 44.00,55.00
             44.00,55.00 44.00,976.00 44.00,976.00
             44.00,976.00 271.00,976.00 271.00,976.00
             271.00,976.00 271.00,249.00 271.00,249.00
             271.00,249.00 349.00,248.00 349.00,248.00
             349.00,248.00 407.00,247.00 407.00,247.00
             407.00,247.00 466.00,246.00 466.00,246.00
             466.00,246.00 502.00,245.00 502.00,245.00
             502.00,245.00 573.78,245.80 573.78,245.80
             573.78,245.80 585.00,245.91 585.00,245.91
             620.84,248.37 659.86,254.31 690.00,275.44
             732.18,305.00 743.99,351.63 749.16,400.00
             749.16,400.00 751.09,425.00 751.09,425.00
             751.09,425.00 753.00,460.00 753.00,460.00
             753.00,460.00 753.00,976.00 753.00,976.00
             753.00,976.00 980.00,976.00 980.00,976.00 Z" />
</svg>
