<?xml version="1.0" encoding="UTF-8" standalone="no"?>
<!DOCTYPE svg PUBLIC "-//W3C//DTD SVG 20010904//EN"
              "http://www.w3.org/TR/2001/REC-SVG-20010904/DTD/svg10.dtd">

<svg xmlns="http://www.w3.org/2000/svg"
     width="3.41333in" height="3.41333in"
     viewBox="0 0 1024 1024">
  <path id="パス"
        fill="#454351" stroke="black" stroke-width="1"
        d="M 349.75,648.00
           C 341.58,648.00 333.30,645.86 324.89,641.59
             316.49,637.31 308.65,631.01 301.36,622.67
             301.36,622.67 299.70,622.67 299.70,622.67
             299.70,622.67 295.06,643.00 295.06,643.00
             295.06,643.00 249.00,643.00 249.00,643.00
             249.00,643.00 249.00,377.00 249.00,377.00
             249.00,377.00 307.00,377.00 307.00,377.00
             307.00,377.00 307.00,469.16 307.00,469.16
             314.03,462.77 321.72,457.82 330.08,454.30
             338.43,450.77 346.89,449.00 355.47,449.00
             370.41,449.00 383.38,452.95 394.38,460.84
             405.36,468.73 413.88,479.90 419.92,494.34
             425.97,508.78 429.00,525.67 429.00,545.02
             429.00,566.79 425.18,585.40 417.55,600.84
             409.92,616.28 400.09,628.00 388.05,636.00
             376.00,644.00 363.24,648.00 349.75,648.00 Z
           M 335.97,599.00
           C 341.96,599.00 347.45,597.22 352.44,593.66
             357.44,590.09 361.38,584.43 364.25,576.66
             367.13,568.88 368.58,558.65 368.58,545.97
             368.58,534.84 367.47,525.67 365.25,518.45
             363.03,511.23 359.70,505.83 355.27,502.27
             350.83,498.70 345.05,496.92 337.95,496.92
             332.41,496.92 327.30,498.20 322.64,500.77
             317.98,503.32 313.10,507.38 308.00,512.94
             308.00,512.94 308.00,587.98 308.00,587.98
             312.44,592.21 317.10,595.11 321.98,596.67
             326.87,598.23 331.53,599.00 335.97,599.00 Z
           M 548.67,648.00
           C 532.72,648.00 517.66,644.05 503.50,636.17
             489.33,628.29 477.88,616.90 469.12,602.02
             460.38,587.13 456.00,569.25 456.00,548.38
             456.00,527.50 460.38,509.68 469.12,494.91
             477.88,480.12 489.33,468.79 503.50,460.91
             517.66,453.02 532.72,449.08 548.67,449.08
             560.63,449.08 572.14,451.30 583.20,455.75
             594.27,460.19 604.13,466.68 612.77,475.23
             621.41,483.79 628.27,494.17 633.36,506.39
             638.45,518.61 641.00,532.61 641.00,548.38
             641.00,569.25 636.62,587.13 627.88,602.02
             619.12,616.90 607.72,628.29 593.66,636.17
             579.60,644.05 564.61,648.00 548.67,648.00 Z
           M 548.67,600.08
           C 555.97,600.08 562.00,597.96 566.77,593.73
             571.54,589.51 575.03,583.50 577.25,575.72
             579.47,567.94 580.58,558.82 580.58,548.38
             580.58,537.93 579.47,528.87 577.25,521.19
             575.03,513.51 571.54,507.56 566.77,503.34
             562.00,499.12 555.97,497.00 548.67,497.00
             541.36,497.00 535.32,499.12 530.55,503.34
             525.79,507.56 522.24,513.51 519.91,521.19
             517.58,528.87 516.42,537.93 516.42,548.38
             516.42,558.82 517.58,567.94 519.91,575.72
             522.24,583.50 525.79,589.51 530.55,593.73
             535.32,597.96 541.36,600.08 548.67,600.08 Z
           M 740.36,648.00
           C 724.73,648.00 712.02,644.83 702.22,638.50
             692.43,632.17 685.27,623.39 680.77,612.17
             676.25,600.95 674.00,587.89 674.00,573.00
             674.00,573.00 674.00,500.00 674.00,500.00
             674.00,500.00 648.00,500.00 648.00,500.00
             648.00,500.00 648.00,456.31 648.00,456.31
             648.00,456.31 677.56,454.00 677.56,454.00
             677.56,454.00 684.28,404.00 684.28,404.00
             684.28,404.00 733.00,404.00 733.00,404.00
             733.00,404.00 733.00,454.00 733.00,454.00
             733.00,454.00 777.00,454.00 777.00,454.00
             777.00,454.00 777.00,500.00 777.00,500.00
             777.00,500.00 733.00,500.00 733.00,500.00
             733.00,500.00 733.00,572.56 733.00,572.56
             733.00,583.05 735.24,590.59 739.73,595.16
             744.22,599.72 749.86,602.00 756.66,602.00
             759.72,602.00 762.78,601.61 765.84,600.83
             768.91,600.05 771.53,599.21 773.72,598.33
             773.72,598.33 782.97,641.05 782.97,641.05
             778.12,642.59 772.23,644.13 765.30,645.67
             758.37,647.22 750.05,648.00 740.36,648.00 Z
           M 481.00,339.00
           C 481.00,339.00 481.00,300.00 481.00,300.00
             481.03,282.27 489.06,249.86 495.42,233.00
             520.43,166.75 580.23,115.92 649.00,100.35
             659.53,97.97 676.36,95.13 687.00,95.00
             687.00,95.00 716.00,95.00 716.00,95.00
             734.90,95.03 770.34,104.69 788.00,112.01
             788.00,112.01 807.00,121.26 807.00,121.26
             817.35,126.60 830.85,136.14 840.00,143.45
             842.65,145.56 851.92,154.35 854.28,154.76
             856.07,155.07 860.11,153.66 862.00,153.15
             862.00,153.15 877.00,149.15 877.00,149.15
             896.50,143.87 925.81,131.85 944.00,122.75
             956.01,116.75 971.95,105.75 984.91,115.79
             994.03,122.85 993.24,135.26 989.58,145.00
             982.17,164.72 969.71,188.04 956.00,204.00
             968.41,201.17 985.09,192.00 997.00,192.00
             1006.48,192.00 1015.21,196.87 1016.58,207.00
             1017.22,209.76 1017.13,216.35 1016.58,219.00
             1013.83,227.82 998.35,246.49 992.08,254.00
             977.07,271.96 961.09,289.47 943.00,304.39
             938.90,307.76 924.95,318.26 923.02,322.01
             921.81,324.38 922.01,327.40 922.00,330.00
             922.00,330.00 922.00,353.00 922.00,353.00
             922.00,353.00 919.17,383.00 919.17,383.00
             919.17,383.00 916.83,410.00 916.83,410.00
             914.50,433.35 909.05,456.29 903.37,479.00
             903.37,479.00 891.66,522.00 891.66,522.00
             891.66,522.00 873.42,570.00 873.42,570.00
             835.16,661.20 777.63,739.79 701.00,802.58
             624.95,864.89 530.27,906.25 433.00,920.27
             418.08,922.42 381.36,927.98 368.00,928.00
             368.00,928.00 301.00,928.00 301.00,928.00
             301.00,928.00 291.00,927.09 291.00,927.09
             291.00,927.09 259.00,924.17 259.00,924.17
             208.22,919.09 146.92,902.59 100.00,882.57
             100.00,882.57 50.00,858.26 50.00,858.26
             40.34,853.27 21.74,843.62 14.18,836.54
             4.40,827.37 5.90,809.37 18.00,802.92
             23.19,800.15 32.07,800.93 38.00,801.00
             38.00,801.00 48.00,802.00 48.00,802.00
             48.00,802.00 57.00,802.00 57.00,802.00
             57.00,802.00 74.00,803.00 74.00,803.00
             74.00,803.00 84.00,802.09 84.00,802.09
             84.00,802.09 115.00,799.15 115.00,799.15
             159.09,793.87 195.92,783.66 236.00,764.26
             246.33,759.26 256.36,754.30 266.00,748.00
             255.07,745.53 243.22,740.91 233.00,736.30
             190.78,717.27 157.61,687.76 133.80,648.00
             127.90,638.15 115.87,614.93 114.30,604.00
             113.16,596.13 113.86,588.09 120.18,582.53
             126.56,576.93 130.00,578.99 137.00,577.00
             128.46,573.36 111.88,557.95 105.00,551.00
             82.82,528.56 63.51,496.98 53.51,467.00
             53.51,467.00 47.13,443.00 47.13,443.00
             42.68,424.68 42.76,413.54 43.00,395.00
             43.12,386.26 48.04,378.40 57.00,376.39
             67.88,373.95 77.13,379.58 87.00,383.00
             67.87,360.37 53.82,323.97 48.39,295.00
             46.47,284.76 44.02,274.47 44.00,264.00
             44.00,264.00 44.00,242.00 44.00,242.00
             44.03,225.64 48.43,209.77 52.37,194.00
             56.29,178.34 60.44,164.25 68.31,150.00
             74.91,138.05 82.71,130.99 97.00,133.21
             104.43,134.37 107.91,139.67 112.26,145.00
             112.26,145.00 129.04,164.00 129.04,164.00
             129.04,164.00 143.01,178.99 143.01,178.99
             143.01,178.99 152.00,187.09 152.00,187.09
             170.26,204.10 188.88,220.28 209.00,235.12
             246.98,263.11 291.82,287.91 336.00,304.58
             336.00,304.58 363.00,313.67 363.00,313.67
             402.82,326.94 439.02,335.60 481.00,339.00 Z
           M 924.00,177.00
           C 924.00,177.00 901.00,185.25 901.00,185.25
             901.00,185.25 869.00,193.88 869.00,193.88
             862.66,195.56 857.80,197.69 851.00,197.96
             836.81,198.52 831.61,190.71 822.00,182.29
             813.96,175.23 805.95,169.19 797.00,163.34
             770.49,146.03 738.36,137.41 707.00,135.18
             707.00,135.18 695.00,136.00 695.00,136.00
             617.69,136.90 549.64,189.66 528.43,264.00
             528.43,264.00 524.59,283.00 524.59,283.00
             524.59,283.00 521.00,310.00 521.00,310.00
             520.90,318.89 521.23,328.18 522.28,337.00
             522.28,337.00 524.96,356.00 524.96,356.00
             525.47,369.20 517.25,379.75 504.00,381.70
             498.29,382.54 487.25,380.59 481.00,380.08
             481.00,380.08 430.00,373.58 430.00,373.58
             396.33,367.51 380.17,362.72 348.00,352.00
             348.00,352.00 320.00,342.58 320.00,342.58
             265.59,322.05 213.65,291.72 168.00,255.79
             152.20,243.35 136.39,230.03 122.00,215.99
             122.00,215.99 96.00,190.00 96.00,190.00
             92.11,207.25 85.03,226.21 85.00,244.00
             85.00,244.00 85.00,262.00 85.00,262.00
             85.01,270.89 86.79,276.46 88.39,285.00
             92.67,307.86 99.73,327.14 112.06,347.00
             121.37,361.99 136.34,379.15 150.00,390.20
             160.26,398.49 173.36,402.60 172.98,418.00
             172.60,433.98 158.21,437.98 145.00,438.00
             145.00,438.00 134.00,438.00 134.00,438.00
             119.69,437.98 99.34,432.30 86.00,427.00
             93.68,481.50 131.53,529.19 179.00,555.14
             187.08,559.55 203.97,566.00 213.00,568.57
             219.16,570.33 227.83,571.36 233.00,574.48
             240.97,579.29 245.10,588.91 242.35,598.00
             238.90,609.46 229.19,611.70 219.00,613.41
             219.00,613.41 188.00,617.83 188.00,617.83
             188.00,617.83 166.00,620.00 166.00,620.00
             169.72,630.07 181.72,645.86 188.95,654.00
             211.31,679.18 240.71,697.69 273.00,707.28
             279.89,709.32 301.89,713.42 309.00,713.91
             319.41,714.63 329.16,713.60 336.21,723.04
             342.79,731.84 340.69,742.16 333.82,750.00
             324.55,760.57 308.97,770.14 297.00,777.68
             262.18,799.63 221.00,818.50 181.00,828.63
             181.00,828.63 144.00,836.85 144.00,836.85
             137.36,837.67 114.76,839.97 110.00,842.00
             150.50,859.17 192.61,872.13 236.00,879.41
             236.00,879.41 255.00,882.71 255.00,882.71
             255.00,882.71 283.00,885.17 283.00,885.17
             283.00,885.17 317.00,888.00 317.00,888.00
             317.00,888.00 349.00,888.00 349.00,888.00
             349.00,888.00 364.00,887.00 364.00,887.00
             381.01,886.80 405.61,882.78 423.00,880.27
             496.74,869.64 568.52,843.45 631.00,802.66
             700.43,757.32 758.17,695.21 800.40,624.00
             818.98,592.66 834.44,559.30 846.69,525.00
             846.69,525.00 852.97,508.00 852.97,508.00
             852.97,508.00 864.88,463.00 864.88,463.00
             864.88,463.00 875.71,409.00 875.71,409.00
             875.71,409.00 877.17,391.00 877.17,391.00
             877.17,391.00 881.00,348.00 881.00,348.00
             881.00,348.00 881.00,326.00 881.00,326.00
             880.99,318.10 879.06,310.54 882.84,303.00
             886.53,295.62 893.76,291.16 900.00,286.19
             900.00,286.19 927.00,263.04 927.00,263.04
             931.63,258.62 935.17,256.96 938.00,251.00
             924.89,254.80 911.55,257.53 898.00,259.05
             892.97,259.61 885.97,260.72 881.00,259.61
             868.88,256.89 862.15,241.90 867.92,231.00
             871.44,224.35 880.08,218.92 886.00,214.20
             897.75,204.83 917.00,190.05 924.00,177.00 Z
           M 925.00,176.00
           C 925.00,176.00 924.00,176.00 924.00,176.00
             924.00,176.00 925.00,177.00 925.00,177.00
             925.00,177.00 925.00,176.00 925.00,176.00 Z" />
</svg>
