<?xml version="1.0" encoding="UTF-8" standalone="no"?>
<!DOCTYPE svg PUBLIC "-//W3C//DTD SVG 20010904//EN"
              "http://www.w3.org/TR/2001/REC-SVG-20010904/DTD/svg10.dtd">

<svg xmlns="http://www.w3.org/2000/svg"
     width="3.41333in" height="3.41333in"
     viewBox="0 0 1024 1024">
  <path id="選択範囲 #14"
        fill="#454351" stroke="none" stroke-width="1"
        d="M 415.00,147.11
           C 415.00,147.11 456.00,147.11 456.00,147.11
             456.00,147.11 532.00,147.11 532.00,147.11
             532.00,147.11 599.00,147.11 599.00,147.11
             599.00,147.11 614.00,148.00 614.00,148.00
             614.00,148.00 648.00,148.00 648.00,148.00
             648.00,148.00 665.00,149.00 665.00,149.00
             665.00,149.00 705.00,150.00 705.00,150.00
             705.00,150.00 720.00,151.00 720.00,151.00
             720.00,151.00 733.00,151.00 733.00,151.00
             733.00,151.00 759.00,152.91 759.00,152.91
             759.00,152.91 802.00,155.91 802.00,155.91
             860.91,159.94 921.49,160.06 966.91,204.17
             966.91,204.17 977.00,216.00 977.00,216.00
             1002.70,248.30 1010.82,289.88 1014.83,330.00
             1014.83,330.00 1016.28,346.00 1016.28,346.00
             1016.28,346.00 1021.09,403.00 1021.09,403.00
             1021.09,403.00 1023.09,432.00 1023.09,432.00
             1023.09,432.00 1024.00,444.00 1024.00,444.00
             1024.00,444.00 1024.00,514.00 1024.00,514.00
             1024.00,514.00 1024.00,581.00 1024.00,581.00
             1024.00,581.00 1022.00,616.00 1022.00,616.00
             1022.00,616.00 1016.15,684.00 1016.15,684.00
             1009.98,735.67 1003.10,789.53 961.00,825.57
             919.67,860.96 878.03,862.29 827.00,867.17
             827.00,867.17 774.00,871.09 774.00,871.09
             774.00,871.09 743.00,873.00 743.00,873.00
             743.00,873.00 729.00,874.00 729.00,874.00
             729.00,874.00 716.00,874.00 716.00,874.00
             716.00,874.00 701.00,875.00 701.00,875.00
             701.00,875.00 687.00,875.00 687.00,875.00
             687.00,875.00 672.00,876.00 672.00,876.00
             672.00,876.00 651.00,876.00 651.00,876.00
             651.00,876.00 635.00,877.00 635.00,877.00
             635.00,877.00 426.00,877.00 426.00,877.00
             426.00,877.00 411.00,876.00 411.00,876.00
             411.00,876.00 351.00,876.00 351.00,876.00
             351.00,876.00 339.00,875.04 339.00,875.04
             339.00,875.04 325.00,875.04 325.00,875.04
             325.00,875.04 310.00,874.00 310.00,874.00
             310.00,874.00 281.00,873.00 281.00,873.00
             281.00,873.00 262.00,872.00 262.00,872.00
             262.00,872.00 242.00,871.00 242.00,871.00
             242.00,871.00 232.00,870.09 232.00,870.09
             232.00,870.09 196.00,867.09 196.00,867.09
             153.32,864.10 107.18,859.66 72.00,832.76
             54.49,819.37 40.16,802.78 30.27,783.00
             15.04,752.55 11.19,713.53 7.83,680.00
             7.83,680.00 4.17,644.00 4.17,644.00
             4.17,644.00 1.91,608.00 1.91,608.00
             1.91,608.00 0.00,582.00 0.00,582.00
             0.00,582.00 0.00,501.00 0.00,501.00
             0.00,501.00 0.00,449.00 0.00,449.00
             0.00,449.00 1.00,432.00 1.00,432.00
             1.00,432.00 2.00,408.00 2.00,408.00
             2.00,408.00 3.83,384.00 3.83,384.00
             3.83,384.00 5.17,363.00 5.17,363.00
             5.17,363.00 8.72,334.00 8.72,334.00
             14.40,290.47 18.97,249.18 48.44,214.00
             55.68,205.35 63.97,197.65 73.00,190.89
             106.83,165.56 149.44,161.71 190.00,157.83
             190.00,157.83 230.00,154.91 230.00,154.91
             230.00,154.91 255.00,153.00 255.00,153.00
             255.00,153.00 284.00,152.00 284.00,152.00
             284.00,152.00 301.00,151.00 301.00,151.00
             301.00,151.00 322.00,150.00 322.00,150.00
             322.00,150.00 341.00,149.00 341.00,149.00
             341.00,149.00 360.00,149.00 360.00,149.00
             360.00,149.00 383.00,148.00 383.00,148.00
             383.00,148.00 415.00,147.11 415.00,147.11 Z
           M 414.00,188.07
           C 414.00,188.07 376.00,189.00 376.00,189.00
             376.00,189.00 359.00,190.00 359.00,190.00
             359.00,190.00 342.00,190.00 342.00,190.00
             342.00,190.00 322.00,191.00 322.00,191.00
             322.00,191.00 307.00,192.00 307.00,192.00
             307.00,192.00 279.00,193.00 279.00,193.00
             279.00,193.00 262.00,194.00 262.00,194.00
             262.00,194.00 232.00,195.91 232.00,195.91
             232.00,195.91 191.00,198.91 191.00,198.91
             153.01,201.57 111.51,206.65 84.09,236.00
             54.83,267.31 52.97,312.76 47.72,353.00
             47.72,353.00 43.91,398.00 43.91,398.00
             43.91,398.00 43.00,408.00 43.00,408.00
             43.00,408.00 41.00,456.00 41.00,456.00
             41.00,456.00 40.00,471.00 40.00,471.00
             40.00,471.00 40.00,553.00 40.00,553.00
             40.00,553.00 41.00,568.00 41.00,568.00
             41.00,568.00 41.00,581.00 41.00,581.00
             41.00,581.00 42.91,607.00 42.91,607.00
             42.91,607.00 46.83,657.00 46.83,657.00
             50.90,697.69 52.67,753.33 81.17,785.00
             89.23,793.96 98.39,801.89 109.00,807.69
             135.78,822.31 169.30,823.29 199.00,826.17
             199.00,826.17 244.00,830.00 244.00,830.00
             244.00,830.00 262.00,831.00 262.00,831.00
             262.00,831.00 285.00,832.00 285.00,832.00
             285.00,832.00 300.00,833.00 300.00,833.00
             300.00,833.00 335.00,834.00 335.00,834.00
             335.00,834.00 350.00,835.00 350.00,835.00
             350.00,835.00 372.00,835.00 372.00,835.00
             372.00,835.00 389.00,836.00 389.00,836.00
             389.00,836.00 428.00,836.00 428.00,836.00
             428.00,836.00 445.00,837.00 445.00,837.00
             445.00,837.00 582.00,837.00 582.00,837.00
             582.00,837.00 597.00,836.00 597.00,836.00
             597.00,836.00 638.00,836.00 638.00,836.00
             638.00,836.00 655.00,835.00 655.00,835.00
             655.00,835.00 672.00,835.00 672.00,835.00
             672.00,835.00 684.00,834.04 684.00,834.04
             684.00,834.04 700.00,834.04 700.00,834.04
             700.00,834.04 712.00,833.04 712.00,833.04
             712.00,833.04 726.00,833.04 726.00,833.04
             726.00,833.04 747.00,832.00 747.00,832.00
             747.00,832.00 757.00,831.09 757.00,831.09
             757.00,831.09 771.00,830.00 771.00,830.00
             771.00,830.00 781.00,830.00 781.00,830.00
             781.00,830.00 813.00,827.09 813.00,827.09
             813.00,827.09 847.00,824.17 847.00,824.17
             881.86,820.68 911.27,816.04 937.96,790.83
             959.90,770.11 967.13,737.71 971.27,709.00
             971.27,709.00 977.83,659.00 977.83,659.00
             977.83,659.00 979.09,639.00 979.09,639.00
             979.09,639.00 981.00,608.00 981.00,608.00
             981.00,608.00 983.04,581.00 983.04,581.00
             983.04,581.00 983.04,566.00 983.04,566.00
             983.04,566.00 984.00,554.00 984.00,554.00
             984.00,554.00 984.00,474.00 984.00,474.00
             984.00,474.00 983.00,459.00 983.00,459.00
             983.00,459.00 983.00,445.00 983.00,445.00
             983.00,445.00 981.09,419.00 981.09,419.00
             981.09,419.00 978.83,383.00 978.83,383.00
             978.83,383.00 976.17,358.00 976.17,358.00
             972.04,316.71 970.11,272.50 942.54,239.00
             909.84,199.27 847.03,200.13 800.00,196.91
             800.00,196.91 758.00,193.91 758.00,193.91
             758.00,193.91 732.00,192.00 732.00,192.00
             732.00,192.00 719.00,192.00 719.00,192.00
             719.00,192.00 704.00,191.00 704.00,191.00
             704.00,191.00 667.00,190.00 667.00,190.00
             667.00,190.00 650.00,189.00 650.00,189.00
             650.00,189.00 618.00,189.00 618.00,189.00
             618.00,189.00 601.00,188.07 601.00,188.07
             601.00,188.07 529.00,188.07 529.00,188.07
             529.00,188.07 454.00,188.07 454.00,188.07
             454.00,188.07 414.00,188.07 414.00,188.07 Z
           M 407.00,344.65
           C 422.48,341.47 432.09,350.38 445.00,357.72
             445.00,357.72 522.00,402.15 522.00,402.15
             522.00,402.15 604.00,449.42 604.00,449.42
             604.00,449.42 666.00,485.15 666.00,485.15
             674.25,489.86 686.33,494.86 688.61,505.00
             692.15,520.76 682.66,527.39 671.00,535.00
             671.00,535.00 636.00,556.40 636.00,556.40
             572.19,594.23 508.03,631.99 443.00,667.70
             438.24,670.31 424.45,678.10 420.00,679.37
             409.83,682.25 397.94,678.35 393.99,668.00
             392.85,665.00 393.01,662.15 393.00,659.00
             393.00,659.00 393.00,422.00 393.00,422.00
             393.00,422.00 393.00,373.00 393.00,373.00
             393.02,360.57 393.96,349.84 407.00,344.65 Z
           M 629.00,511.00
           C 629.00,511.00 577.00,481.42 577.00,481.42
             577.00,481.42 487.00,429.58 487.00,429.58
             487.00,429.58 454.00,410.58 454.00,410.58
             454.00,410.58 434.00,400.00 434.00,400.00
             434.00,400.00 434.00,625.00 434.00,625.00
             434.00,625.00 479.00,599.85 479.00,599.85
             479.00,599.85 568.00,548.42 568.00,548.42
             568.00,548.42 608.00,524.99 608.00,524.99
             614.00,521.47 624.68,515.94 629.00,511.00 Z" />
</svg>
