<?xml version="1.0" encoding="UTF-8" standalone="no"?>
<!DOCTYPE svg PUBLIC "-//W3C//DTD SVG 20010904//EN"
              "http://www.w3.org/TR/2001/REC-SVG-20010904/DTD/svg10.dtd">

<svg xmlns="http://www.w3.org/2000/svg"
     width="3.41333in" height="3.41333in"
     viewBox="0 0 1024 1024">
  <path id="選択範囲 #22"
        fill="#454351" stroke="none" stroke-width="1"
        d="M 712.00,5.21
           C 712.00,5.21 776.00,5.21 776.00,5.21
             790.15,5.00 810.89,3.77 824.00,7.72
             840.75,12.77 850.38,25.51 849.99,43.00
             849.67,56.99 843.38,63.83 836.42,75.00
             836.42,75.00 812.05,115.00 812.05,115.00
             812.05,115.00 765.80,191.00 765.80,191.00
             765.80,191.00 718.20,269.00 718.20,269.00
             718.20,269.00 638.81,399.00 638.81,399.00
             638.81,399.00 493.19,638.00 493.19,638.00
             493.19,638.00 376.60,829.00 376.60,829.00
             376.60,829.00 302.20,951.00 302.20,951.00
             291.92,968.14 276.69,997.58 259.00,1006.63
             243.90,1014.35 218.00,1013.03 201.00,1013.00
             201.00,1013.00 184.00,1012.00 184.00,1012.00
             184.00,1012.00 36.00,1012.00 36.00,1012.00
             30.56,1011.93 24.01,1010.82 19.00,1008.66
             -1.25,999.92 -2.74,978.20 7.45,961.00
             7.45,961.00 16.19,948.00 16.19,948.00
             16.19,948.00 43.19,904.00 43.19,904.00
             43.19,904.00 146.81,734.00 146.81,734.00
             146.81,734.00 486.19,178.00 486.19,178.00
             486.19,178.00 560.60,56.00 560.60,56.00
             566.15,46.75 578.08,26.04 585.17,19.30
             595.18,9.78 609.50,6.02 623.00,6.00
             623.00,6.00 680.00,6.00 680.00,6.00
             680.00,6.00 712.00,5.21 712.00,5.21 Z
           M 805.00,46.00
           C 805.00,46.00 709.00,46.00 709.00,46.00
             709.00,46.00 692.00,47.00 692.00,47.00
             692.00,47.00 626.00,47.00 626.00,47.00
             622.74,47.01 618.99,46.82 616.02,48.31
             611.07,50.79 605.75,61.09 602.80,66.00
             602.80,66.00 583.32,98.00 583.32,98.00
             583.32,98.00 538.19,172.00 538.19,172.00
             538.19,172.00 480.80,266.00 480.80,266.00
             480.80,266.00 353.81,474.00 353.81,474.00
             353.81,474.00 189.19,744.00 189.19,744.00
             189.19,744.00 95.80,897.00 95.80,897.00
             95.80,897.00 69.58,940.00 69.58,940.00
             69.58,940.00 51.00,971.00 51.00,971.00
             51.00,971.00 165.00,971.00 165.00,971.00
             165.00,971.00 182.00,972.00 182.00,972.00
             182.00,972.00 224.00,972.00 224.00,972.00
             228.57,971.99 236.10,971.74 239.99,969.26
             244.78,966.20 249.63,957.93 252.60,953.00
             252.60,953.00 271.00,923.00 271.00,923.00
             271.00,923.00 319.80,843.00 319.80,843.00
             319.80,843.00 366.68,766.00 366.68,766.00
             366.68,766.00 464.81,605.00 464.81,605.00
             464.81,605.00 661.81,282.00 661.81,282.00
             661.81,282.00 758.81,123.00 758.81,123.00
             758.81,123.00 790.00,72.00 790.00,72.00
             793.66,65.91 802.93,51.60 805.00,46.00 Z
           M 812.00,500.14
           C 812.00,500.14 863.00,500.14 863.00,500.14
             863.00,500.14 959.00,500.14 959.00,500.14
             959.00,500.14 971.00,501.04 971.00,501.04
             971.00,501.04 980.00,501.04 980.00,501.04
             998.15,502.93 1017.00,510.47 1021.76,530.00
             1022.67,533.73 1023.11,537.16 1022.96,541.00
             1022.33,557.20 1013.06,571.71 1004.68,585.00
             1004.68,585.00 974.05,634.00 974.05,634.00
             974.05,634.00 847.42,837.00 847.42,837.00
             847.42,837.00 769.42,962.00 769.42,962.00
             762.71,972.77 750.22,995.33 741.00,1002.47
             731.90,1009.52 718.28,1011.98 707.00,1012.00
             707.00,1012.00 528.00,1012.00 528.00,1012.00
             521.13,1011.99 513.56,1011.06 507.00,1008.97
             502.68,1007.60 497.57,1005.42 494.00,1002.61
             491.46,1000.61 488.66,997.64 486.79,995.00
             470.66,972.33 491.52,945.01 503.42,926.00
             503.42,926.00 512.32,912.00 512.32,912.00
             512.32,912.00 523.68,894.00 523.68,894.00
             523.68,894.00 633.58,720.00 633.58,720.00
             633.58,720.00 708.00,602.00 708.00,602.00
             708.00,602.00 743.95,545.00 743.95,545.00
             752.12,531.97 759.57,518.56 773.00,510.23
             786.72,501.73 797.14,502.53 812.00,500.14 Z
           M 981.00,543.00
           C 969.69,540.25 937.27,541.00 924.00,541.00
             924.00,541.00 821.00,541.00 821.00,541.00
             814.47,541.01 800.51,542.04 795.09,545.36
             788.97,549.12 780.67,564.34 776.34,571.00
             776.34,571.00 736.00,635.00 736.00,635.00
             736.00,635.00 677.95,727.00 677.95,727.00
             677.95,727.00 589.58,867.00 589.58,867.00
             589.58,867.00 547.31,934.00 547.31,934.00
             542.65,941.24 527.05,964.55 525.00,971.00
             525.00,971.00 704.00,971.00 704.00,971.00
             704.00,971.00 714.68,969.60 714.68,969.60
             714.68,969.60 720.81,962.00 720.81,962.00
             720.81,962.00 730.81,946.00 730.81,946.00
             730.81,946.00 776.95,872.00 776.95,872.00
             776.95,872.00 911.05,657.00 911.05,657.00
             911.05,657.00 954.68,587.00 954.68,587.00
             954.68,587.00 981.00,543.00 981.00,543.00 Z" />
</svg>
